<svg width="17" height="17" viewBox="0 0 17 17" fill="none" xmlns="http://www.w3.org/2000/svg">
<path d="M9.33461 8.5L1.83461 16L1 15.1654L7.66539 8.5L1 1.83461L1.83461 1L9.33461 8.5Z" fill="black" fill-opacity="0.5"/>
<path d="M10.042 8.5L1.83496 16.707L0.292969 15.165L6.95801 8.5L0.292969 1.83496L1.83496 0.292969L10.042 8.5ZM1 1.83496L7.66504 8.5L1 15.165L1.83496 16L9.33496 8.5L1.83496 1L1 1.83496Z" fill="black" fill-opacity="0.5"/>
<path d="M15.6675 8.5L11.1682 13L10.6675 12.4992L14.6661 8.5L10.6675 4.50077L11.1682 4L15.6675 8.5Z" fill="black" fill-opacity="0.5"/>
<path d="M16.3745 8.5L11.1685 13.707L9.96045 12.499L13.9595 8.5L9.96045 4.50098L11.1685 3.29297L16.3745 8.5ZM10.6675 4.50098L14.6665 8.5L10.6675 12.499L11.1685 13L15.6675 8.5L11.1685 4L10.6675 4.50098Z" fill="black" fill-opacity="0.5"/>
</svg>
