<svg width="22" height="22" viewBox="0 0 22 22" fill="none" xmlns="http://www.w3.org/2000/svg">
<path d="M0 18.8566V4.18716C6.77404e-05 3.35356 0.331481 2.5541 0.92093 1.96465C1.51043 1.37522 2.30981 1.04372 3.14344 1.04372H10.4781C11.0567 1.04372 11.5258 1.51296 11.526 2.09153C11.526 2.67023 11.0568 3.13935 10.4781 3.13935H3.14344C2.8656 3.13935 2.5991 3.2499 2.4026 3.44633C2.20616 3.64277 2.0957 3.90936 2.09563 4.18716V18.8566C2.09563 19.1344 2.20618 19.4009 2.4026 19.5974C2.59911 19.7939 2.86554 19.9044 3.14344 19.9044H17.8128C18.0907 19.9044 18.3572 19.7939 18.5537 19.5974C18.7501 19.4009 18.8607 19.1344 18.8607 18.8566V11.5219C18.8608 10.9433 19.3299 10.474 19.9085 10.474C20.4871 10.474 20.9561 10.9433 20.9563 11.5219V18.8566C20.9563 19.6902 20.6248 20.4896 20.0353 21.0791C19.4458 21.6686 18.6465 22 17.8128 22H3.14344C2.30975 22 1.51044 21.6686 0.92093 21.0791C0.3315 20.4896 0 19.6902 0 18.8566ZM19.8993 3.1547C19.8726 2.88562 19.7534 2.63231 19.5606 2.43944C19.3402 2.2192 19.0412 2.09563 18.7297 2.09563C18.457 2.09565 18.1938 2.19027 17.9847 2.36167L17.8988 2.43944L8.45516 11.8851H8.45414C8.32983 12.0092 8.23867 12.1628 8.18912 12.3313L7.57721 14.4218L9.66977 13.8109L9.79358 13.7659C9.87384 13.731 9.94956 13.6865 10.0187 13.6328L10.1169 13.5459L19.5606 4.10121L19.6383 4.01526C19.8097 3.80615 19.9044 3.54307 19.9044 3.27033L19.8993 3.1547ZM21.9959 3.43302C21.9584 4.18737 21.6607 4.90533 21.1538 5.46521L21.0422 5.58288L11.5986 15.0286C11.2254 15.4014 10.7635 15.6737 10.2571 15.8216L10.2581 15.8226L7.24772 16.7026H7.2467C6.97628 16.7815 6.6897 16.7858 6.41684 16.7159C6.1439 16.646 5.89468 16.5038 5.69544 16.3046C5.4964 16.1055 5.35404 15.8569 5.28409 15.5842C5.21417 15.3112 5.2185 15.0238 5.2974 14.7533H5.29842L6.17842 11.7429V11.7419L6.23981 11.5536C6.37439 11.1831 6.57748 10.8411 6.83842 10.5457L6.97349 10.4024L16.4171 0.957767L16.5348 0.846233C17.1347 0.303016 17.9165 2.43127e-05 18.7297 0C19.597 0 20.4289 0.344523 21.0422 0.957767C21.6555 1.57106 21.9999 2.403 22 3.27033L21.9959 3.43302Z" fill="black"/>
</svg>
