<svg width="23" height="24" viewBox="0 0 23 24" fill="none" xmlns="http://www.w3.org/2000/svg">
<path d="M23.0001 11.9182C23.0011 11.1242 22.9335 10.3315 22.798 9.54895H11.7329V14.0366H18.0705C17.9408 14.7534 17.6663 15.4366 17.2636 16.0452C16.8608 16.6537 16.3382 17.175 15.7271 17.5776V20.4906H19.5095C21.7241 18.4628 23.0001 15.464 23.0001 11.9182Z" fill="#4285F4"/>
<path d="M11.7329 23.3049C14.8992 23.3049 17.5653 22.2724 19.5094 20.4923L15.7271 17.5792C14.6744 18.2881 13.3185 18.6927 11.7329 18.6927C8.67245 18.6927 6.07483 16.6438 5.14594 13.8829H1.24951V16.885C2.22609 18.8148 3.72357 20.4371 5.57476 21.5708C7.42596 22.7044 9.55801 23.3048 11.7329 23.3049Z" fill="#34A853"/>
<path d="M5.14582 13.883C4.65475 12.4362 4.65475 10.8695 5.14582 9.42281V6.42078H1.24939C0.427854 8.04423 0 9.83597 0 11.6529C0 13.4698 0.427854 15.2616 1.24939 16.885L5.14582 13.883Z" fill="#FBBC04"/>
<path d="M11.7329 4.61305C13.4062 4.5859 15.023 5.21374 16.2339 6.36086L19.5828 3.03516C17.4592 1.05443 14.646 -0.0330251 11.7329 0.000764486C9.55801 0.000862922 7.42596 0.601259 5.57476 1.73492C3.72357 2.86859 2.22609 4.4909 1.24951 6.42074L5.14594 9.42277C6.07483 6.66188 8.67245 4.61305 11.7329 4.61305Z" fill="#EA4335"/>
</svg>
