<svg width="30" height="30" viewBox="0 0 30 30" fill="none" xmlns="http://www.w3.org/2000/svg">
<path d="M30 15C30 23.2843 23.2843 30 15 30C6.71573 30 0 23.2843 0 15C0 6.71573 6.71573 0 15 0C23.2843 0 30 6.71573 30 15Z" fill="#0E1324"/>
<path fill-rule="evenodd" clip-rule="evenodd" d="M6 27.0636C7.14564 22.664 10.3625 19.8264 13.8797 19.0997C10.7794 18.1289 9.30855 15.4497 9.36506 12.8594C9.3975 11.3723 9.93285 9.90775 10.9557 8.81256C11.982 7.71376 13.4868 7.00011 15.4275 7.00012C17.3681 7.00013 18.873 7.71379 19.8993 8.81259C20.9221 9.90778 21.4575 11.3723 21.4899 12.8595C21.5454 15.4009 20.1305 18.028 17.1488 19.043C18.6806 19.3126 20.1606 20.0119 21.4398 21.1817C22.7827 22.4098 23.8964 24.1491 24.6207 26.4384C22.0049 28.6599 18.6171 30.0001 14.9163 30.0001C11.577 30.0001 8.49249 28.9089 6 27.0636Z" fill="white"/>
<path fill-rule="evenodd" clip-rule="evenodd" d="M15 28C22.1797 28 28 22.1797 28 15C28 7.8203 22.1797 2 15 2C7.8203 2 2 7.8203 2 15C2 22.1797 7.8203 28 15 28ZM15 30C23.2843 30 30 23.2843 30 15C30 6.71573 23.2843 0 15 0C6.71573 0 0 6.71573 0 15C0 23.2843 6.71573 30 15 30Z" fill="#E7F461"/>
<path fill-rule="evenodd" clip-rule="evenodd" d="M15.5 18.9998C18.5376 18.9998 21 16.5373 21 13.4998C21 10.4622 18.5376 7.99976 15.5 7.99976C12.4624 7.99976 10 10.4622 10 13.4998C10 16.5373 12.4624 18.9998 15.5 18.9998ZM15.5 20.9998C19.6421 20.9998 23 17.6419 23 13.4998C23 9.35762 19.6421 5.99976 15.5 5.99976C11.3579 5.99976 8 9.35762 8 13.4998C8 17.6419 11.3579 20.9998 15.5 20.9998Z" fill="#0E1324"/>
</svg>
