<svg width="81" height="27" viewBox="0 0 81 27" fill="none" xmlns="http://www.w3.org/2000/svg">
<path d="M20.1134 20.3201C18.98 20.3201 17.9267 20.1401 16.9534 19.7801C15.9934 19.4201 15.16 18.9134 14.4534 18.2601C13.7467 17.5934 13.1934 16.8134 12.7934 15.9201C12.4067 15.0267 12.2134 14.0534 12.2134 13.0001C12.2134 11.9334 12.4067 10.9601 12.7934 10.0801C13.1934 9.18672 13.7467 8.41339 14.4534 7.76005C15.16 7.09339 15.9934 6.58005 16.9534 6.22005C17.9267 5.86005 18.98 5.68005 20.1134 5.68005C21.26 5.68005 22.3134 5.86005 23.2734 6.22005C24.2334 6.58005 25.0667 7.09339 25.7734 7.76005C26.48 8.41339 27.0267 9.18672 27.4134 10.0801C27.8134 10.9601 28.0134 11.9334 28.0134 13.0001C28.0134 14.0534 27.8134 15.0267 27.4134 15.9201C27.0267 16.8134 26.48 17.5934 25.7734 18.2601C25.0667 18.9134 24.2334 19.4201 23.2734 19.7801C22.3134 20.1401 21.26 20.3201 20.1134 20.3201ZM20.1134 16.5001C20.5534 16.5001 20.96 16.4201 21.3334 16.2601C21.72 16.1001 22.0534 15.8734 22.3334 15.5801C22.6267 15.2734 22.8534 14.9067 23.0134 14.4801C23.1734 14.0401 23.2534 13.5467 23.2534 13.0001C23.2534 12.4534 23.1734 11.9667 23.0134 11.5401C22.8534 11.1001 22.6267 10.7334 22.3334 10.4401C22.0534 10.1334 21.72 9.90005 21.3334 9.74005C20.96 9.58005 20.5534 9.50005 20.1134 9.50005C19.6734 9.50005 19.26 9.58005 18.8734 9.74005C18.5 9.90005 18.1667 10.1334 17.8734 10.4401C17.5934 10.7334 17.3734 11.1001 17.2134 11.5401C17.0534 11.9667 16.9734 12.4534 16.9734 13.0001C16.9734 13.5467 17.0534 14.0401 17.2134 14.4801C17.3734 14.9067 17.5934 15.2734 17.8734 15.5801C18.1667 15.8734 18.5 16.1001 18.8734 16.2601C19.26 16.4201 19.6734 16.5001 20.1134 16.5001Z" fill="white"/>
<path d="M4.4 11.96H10.56V15.52H4.4V11.96ZM4.72 20H0V6H11.38V9.56H4.72V20Z" fill="white"/>
<path d="M63.562 20L69.682 6H74.322L80.442 20H75.562L71.042 8.24H72.882L68.362 20H63.562ZM67.202 17.56L68.402 14.16H74.842L76.042 17.56H67.202Z" fill="white"/>
<path d="M46 20V6H49.88L55.48 15.14H53.44L58.88 6H62.76L62.8 20H58.5L58.46 12.48H59.14L55.42 18.74H53.34L49.46 12.48H50.3V20H46Z" fill="white"/>
<path d="M29.8601 0C35.9159 0 39.9346 1.8743 41.572 5.21484C43.1748 8.4851 42.0092 12.1984 39.908 14.7666C39.0282 15.8419 38.815 16.6953 38.8357 17.3418C38.8574 18.0186 39.1453 18.7462 39.7488 19.5186C40.9999 21.12 43.2503 22.4474 45.0623 23.127L43.658 26.873C41.47 26.0525 38.4703 24.3799 36.5964 21.9814C35.6374 20.7539 34.8942 19.2312 34.8376 17.4707C34.7802 15.6798 35.4423 13.9079 36.8123 12.2334C38.321 10.3894 38.6549 8.35222 37.9802 6.97559C37.34 5.66947 35.304 4 29.8601 4V0Z" fill="#E7F461"/>
</svg>
