<svg width="108" height="36" viewBox="0 0 108 36" fill="none" xmlns="http://www.w3.org/2000/svg">
<path d="M26.9444 27.2212C25.4262 27.2212 24.0151 26.9801 22.7112 26.4978C21.4251 26.0156 20.3088 25.3368 19.3621 24.4616C18.4154 23.5685 17.6742 22.5236 17.1383 21.3268C16.6203 20.1301 16.3613 18.8262 16.3613 17.4151C16.3613 15.9862 16.6203 14.6823 17.1383 13.5034C17.6742 12.3067 18.4154 11.2707 19.3621 10.3954C20.3088 9.50236 21.4251 8.81468 22.7112 8.33241C24.0151 7.85014 25.4262 7.60901 26.9444 7.60901C28.4805 7.60901 29.8916 7.85014 31.1777 8.33241C32.4637 8.81468 33.5801 9.50236 34.5267 10.3954C35.4734 11.2707 36.2057 12.3067 36.7237 13.5034C37.2596 14.6823 37.5275 15.9862 37.5275 17.4151C37.5275 18.8262 37.2596 20.1301 36.7237 21.3268C36.2057 22.5236 35.4734 23.5685 34.5267 24.4616C33.5801 25.3368 32.4637 26.0156 31.1777 26.4978C29.8916 26.9801 28.4805 27.2212 26.9444 27.2212ZM26.9444 22.1038C27.5339 22.1038 28.0786 21.9967 28.5788 21.7823C29.0968 21.568 29.5433 21.2643 29.9184 20.8714C30.3114 20.4605 30.615 19.9693 30.8294 19.3978C31.0437 18.8083 31.1509 18.1475 31.1509 17.4151C31.1509 16.6828 31.0437 16.0308 30.8294 15.4593C30.615 14.8698 30.3114 14.3786 29.9184 13.9857C29.5433 13.5748 29.0968 13.2623 28.5788 13.0479C28.0786 12.8336 27.5339 12.7264 26.9444 12.7264C26.355 12.7264 25.8013 12.8336 25.2833 13.0479C24.7831 13.2623 24.3366 13.5748 23.9436 13.9857C23.5685 14.3786 23.2738 14.8698 23.0595 15.4593C22.8451 16.0308 22.738 16.6828 22.738 17.4151C22.738 18.1475 22.8451 18.8083 23.0595 19.3978C23.2738 19.9693 23.5685 20.4605 23.9436 20.8714C24.3366 21.2643 24.7831 21.568 25.2833 21.7823C25.8013 21.9967 26.355 22.1038 26.9444 22.1038Z" fill="#0E1324"/>
<path d="M5.89438 16.0218H14.1465V20.7909H5.89438V16.0218ZM6.32306 26.7924H0V8.0376H15.245V12.8067H6.32306V26.7924Z" fill="#0E1324"/>
<path d="M85.1499 26.7924L93.3485 8.0376H99.5643L107.763 26.7924H101.225L95.1704 11.0384H97.6353L91.5801 26.7924H85.1499ZM90.0262 23.5237L91.6337 18.969H100.261L101.869 23.5237H90.0262Z" fill="#0E1324"/>
<path d="M61.623 26.7924V8.0376H66.8208L74.3228 20.2818H71.5899L78.8775 8.0376H84.0753L84.1289 26.7924H78.3685L78.3149 16.7184H79.2258L74.2424 25.1045H71.4559L66.2582 16.7184H67.3835V26.7924H61.623Z" fill="#0E1324"/>
<path d="M39.0015 0C47.1139 0 52.4975 2.51087 54.6911 6.98597C56.7712 11.23 55.371 16.031 52.7222 19.4548L52.4619 19.7818C51.2834 21.2223 50.9978 22.3655 51.0254 23.2316C51.0545 24.1383 51.4403 25.113 52.2486 26.1477C53.9247 28.293 56.9394 30.0713 59.3668 30.9816L57.4855 36C54.5544 34.9008 50.536 32.6602 48.0257 29.4471C46.741 27.8026 45.7453 25.7628 45.6695 23.4043C45.5926 21.0051 46.4795 18.6314 48.3148 16.3883L48.6759 15.9225C50.387 13.5805 50.7268 11.0736 49.8794 9.34472C49.0218 7.59501 46.2943 5.35853 39.0015 5.35853V0Z" fill="#E7F461"/>
</svg>
