<svg width="22" height="22" viewBox="0 0 22 22" fill="none" xmlns="http://www.w3.org/2000/svg">
<path fill-rule="evenodd" clip-rule="evenodd" d="M5.78955 3.57898V5.21094C5.78977 5.76303 6.2374 6.21094 6.78955 6.21094C7.3417 6.21094 7.78933 5.76303 7.78955 5.21094V3.57898H14.2104V5.21094C14.2107 5.76298 14.6584 6.21085 15.2104 6.21094C15.7626 6.21094 16.2102 5.76303 16.2104 5.21094V3.57898H19.9473C19.9612 3.57898 19.9745 3.58473 19.9844 3.5946C19.9942 3.60447 20 3.61775 20 3.63171V7.36804H2V3.63171C2 3.61776 2.00575 3.60447 2.01562 3.5946C2.0255 3.58473 2.03878 3.57898 2.05273 3.57898H5.78955ZM5.78955 1.57898H2.05273C1.50834 1.57898 0.986505 1.7956 0.601562 2.18054C0.216619 2.56549 0 3.08732 0 3.63171V19.9471C0 20.4915 0.216619 21.0143 0.601562 21.3993C0.986468 21.784 1.50854 21.9999 2.05273 21.9999H19.9473C20.4915 21.9999 21.0135 21.784 21.3984 21.3993C21.7834 21.0143 22 20.4915 22 19.9471V3.63171C22 3.08732 21.7834 2.56549 21.3984 2.18054C21.0135 1.7956 20.4917 1.57898 19.9473 1.57898H16.2104V1C16.2104 0.447715 15.7627 0 15.2104 0C14.6582 8.34861e-05 14.2104 0.447767 14.2104 1V1.57898H7.78955V1C7.78955 0.447715 7.34184 0 6.78955 0C6.23727 0 5.78955 0.447715 5.78955 1V1.57898ZM2 9.36804H20V19.9471C20 19.9611 19.9942 19.9744 19.9844 19.9843C19.9745 19.9941 19.9612 19.9999 19.9473 19.9999H2.05273C2.03877 19.9999 2.02549 19.9941 2.01562 19.9843C2.0058 19.9744 2 19.9611 2 19.9471V9.36804Z" fill="black"/>
<path d="M10.25 12.275C10.25 12.9654 9.69036 13.525 9 13.525C8.30965 13.525 7.75 12.9654 7.75 12.275C7.75 11.5846 8.30965 11.025 9 11.025C9.69036 11.025 10.25 11.5846 10.25 12.275Z" fill="black"/>
<path d="M14.25 12.275C14.25 12.9654 13.6904 13.525 13 13.525C12.3096 13.525 11.75 12.9654 11.75 12.275C11.75 11.5846 12.3096 11.025 13 11.025C13.6904 11.025 14.25 11.5846 14.25 12.275Z" fill="black"/>
<path d="M18.25 12.275C18.25 12.9654 17.6904 13.525 17 13.525C16.3096 13.525 15.75 12.9654 15.75 12.275C15.75 11.5846 16.3096 11.025 17 11.025C17.6904 11.025 18.25 11.5846 18.25 12.275Z" fill="black"/>
<path d="M6.25 16.225C6.25 16.9153 5.69036 17.475 5 17.475C4.30964 17.475 3.75 16.9153 3.75 16.225C3.75 15.5346 4.30964 14.975 5 14.975C5.69036 14.975 6.25 15.5346 6.25 16.225Z" fill="black"/>
<path d="M10.25 16.225C10.25 16.9153 9.69036 17.475 9 17.475C8.30965 17.475 7.75 16.9153 7.75 16.225C7.75 15.5346 8.30965 14.975 9 14.975C9.69036 14.975 10.25 15.5346 10.25 16.225Z" fill="black"/>
<path d="M14.25 16.225C14.25 16.9153 13.6904 17.475 13 17.475C12.3096 17.475 11.75 16.9153 11.75 16.225C11.75 15.5346 12.3096 14.975 13 14.975C13.6904 14.975 14.25 15.5346 14.25 16.225Z" fill="black"/>
</svg>
