<svg width="22" height="22" viewBox="0 0 22 22" fill="none" xmlns="http://www.w3.org/2000/svg">
<path d="M11 0.00012207C17.0751 0.00012207 22 4.92499 22 11.0001C22 14.361 20.4906 17.3672 18.1152 19.3849L18.1162 19.3878C18.1003 19.4013 18.0833 19.4135 18.0674 19.4269C18.0029 19.481 17.9369 19.5334 17.8711 19.5861C17.8009 19.6423 17.7308 19.6985 17.6592 19.7531C17.6024 19.7963 17.545 19.8388 17.4873 19.881C17.4061 19.9404 17.3241 19.9986 17.2412 20.0558C17.1894 20.0916 17.1375 20.1273 17.085 20.1622C16.99 20.2254 16.8938 20.2865 16.7969 20.3468C16.7487 20.3767 16.701 20.4074 16.6523 20.4366C16.5434 20.502 16.4326 20.5644 16.3213 20.6261C16.2883 20.6444 16.2559 20.6638 16.2227 20.6818C15.9263 20.842 15.6225 20.9902 15.3105 21.1232C15.2509 21.1486 15.19 21.171 15.1299 21.1954C15.025 21.238 14.9199 21.2801 14.8135 21.3195C14.7598 21.3393 14.7054 21.3571 14.6514 21.3761C14.5471 21.4128 14.4426 21.4489 14.3369 21.4825C14.2693 21.5041 14.201 21.5238 14.1328 21.5441C14.0273 21.5754 13.9213 21.6057 13.8145 21.6339C13.7622 21.6477 13.7098 21.6609 13.6572 21.674C13.5407 21.7029 13.4236 21.7298 13.3057 21.755C13.2482 21.7673 13.1907 21.7798 13.1328 21.7911C13.0185 21.8136 12.9036 21.8338 12.7881 21.8527C12.7254 21.8629 12.6626 21.8728 12.5996 21.882C12.5004 21.8964 12.4008 21.9083 12.3008 21.92C12.2183 21.9298 12.1358 21.9405 12.0527 21.9484C11.95 21.9581 11.8467 21.9649 11.7432 21.9718C11.6746 21.9764 11.606 21.9822 11.5371 21.9855C11.3591 21.994 11.1801 22.0001 11 22.0001C10.8268 22.0001 10.6546 21.9944 10.4834 21.9865C10.4273 21.9839 10.3714 21.9791 10.3154 21.9757C10.1997 21.9686 10.0845 21.961 9.96973 21.9503C9.90313 21.9441 9.83676 21.9372 9.77051 21.9298C9.65995 21.9175 9.54998 21.9034 9.44043 21.8878C9.38401 21.8798 9.32763 21.8723 9.27148 21.8634C8.93208 21.8098 8.59787 21.7412 8.26953 21.6573C8.24205 21.6503 8.2149 21.6421 8.1875 21.6349C8.06133 21.6016 7.93587 21.567 7.81152 21.5294C7.74838 21.5103 7.68571 21.49 7.62305 21.4698C7.5191 21.4363 7.41605 21.4009 7.31348 21.3644C7.26522 21.3472 7.21689 21.3304 7.16895 21.3126C6.8591 21.1975 6.5557 21.0694 6.25977 20.9279C6.22074 20.9092 6.18232 20.8894 6.14355 20.8702C6.03215 20.8153 5.92174 20.7589 5.8125 20.7003C5.76805 20.6765 5.72377 20.6525 5.67969 20.6281C5.58263 20.5743 5.48684 20.5186 5.3916 20.462C5.33772 20.43 5.28376 20.3983 5.23047 20.3654C5.13596 20.307 5.04278 20.2468 4.9502 20.1857C4.90994 20.1591 4.86898 20.1336 4.8291 20.1066C4.70482 20.0222 4.58151 19.9361 4.46094 19.8468V19.8448C1.75497 17.8409 9.84345e-06 14.6259 0 11.0001C0 4.92502 4.9249 0.000164335 11 0.00012207ZM11 2.00012C6.02947 2.00016 2 6.02959 2 11.0001C2.00001 13.7686 3.25133 16.2437 5.21777 17.8947C6.10738 16.2274 7.46688 15.0294 8.99023 14.3937C9.74286 14.7805 10.5956 15.0001 11.5 15.0001C12.4116 15.0001 13.2704 14.7764 14.0273 14.3839C14.6482 14.6551 15.2409 15.0365 15.7842 15.5333C16.345 16.0463 16.8511 16.6811 17.2812 17.4425C18.9575 15.8079 20 13.5264 20 11.0001C20 6.02956 15.9706 2.00012 11 2.00012ZM11.5 5.46692C13.7275 5.46692 15.5332 7.27257 15.5332 9.50012C15.5332 11.7277 13.7275 13.5333 11.5 13.5333C9.27245 13.5333 7.4668 11.7277 7.4668 9.50012C7.4668 7.27257 9.27245 5.46692 11.5 5.46692Z" fill="black"/>
</svg>
