<svg width="21" height="22" viewBox="0 0 21 22" fill="none" xmlns="http://www.w3.org/2000/svg">
<path d="M17.2002 20H19V10.462H17.2002V20ZM9.59961 20H11.4004V12.7696H9.59961V20ZM2 20H3.7998V15.0772H2V20ZM15.0225 0.643591C15.207 0.159851 15.7264 -0.0976679 16.2158 0.0342157L16.3135 0.0654657L19.5811 1.31156L19.6738 1.35258C20.1233 1.57778 20.3401 2.109 20.1631 2.59086L18.9473 5.89847C18.7567 6.41677 18.1824 6.68265 17.6641 6.49222C17.1457 6.30167 16.8798 5.72735 17.0703 5.20902L17.4551 4.16117L2.16309 11.2012L2.06836 11.2383C1.58875 11.403 1.05252 11.1805 0.835938 10.71C0.605443 10.2084 0.825654 9.61467 1.32715 9.38383L16.6445 2.33207L15.6006 1.93461L15.5068 1.89359C15.0538 1.66613 14.838 1.12745 15.0225 0.643591ZM5.7998 21C5.7998 21.5523 5.35209 22 4.7998 22H1C0.447715 22 0 21.5523 0 21V14.8457C0.000117884 14.3805 0.183119 13.9322 0.511719 13.5996L0.639648 13.4815C0.952485 13.222 1.34785 13.0772 1.75977 13.0772H4.04004C4.45198 13.0772 4.84729 13.222 5.16016 13.4815L5.28906 13.5996L5.40527 13.7295C5.66025 14.0445 5.7997 14.4388 5.7998 14.8457V21ZM13.4004 21C13.4004 21.5522 12.9525 21.9998 12.4004 22H8.59961C8.0475 21.9998 7.59961 21.5522 7.59961 21V12.5381C7.59971 12.0729 7.78277 11.6246 8.11133 11.292L8.24023 11.1739C8.55308 10.9145 8.94848 10.7696 9.36035 10.7696H11.6396C12.0515 10.7696 12.4469 10.9145 12.7598 11.1739L12.8887 11.292L13.0049 11.4219C13.26 11.7369 13.4003 12.1311 13.4004 12.5381V21ZM21 21C21 21.5523 20.5523 22 20 22H16.2002C15.6479 22 15.2002 21.5523 15.2002 21V10.2305C15.2003 9.76541 15.3825 9.31701 15.7109 8.98441L15.8398 8.86625C16.1527 8.60671 16.548 8.46196 16.96 8.46195H19.2402C19.6522 8.46201 20.0475 8.60669 20.3604 8.86625L20.4883 8.98441L20.6055 9.11429C20.8604 9.42929 20.9999 9.82356 21 10.2305V21Z" fill="black"/>
</svg>
