<svg width="21" height="22" viewBox="0 0 21 22" fill="none" xmlns="http://www.w3.org/2000/svg">
<path d="M9.20404 22.0001C8.70772 22.0001 8.28051 21.8351 7.92243 21.5051C7.56434 21.1751 7.34816 20.7718 7.2739 20.2951L7.02574 18.4801C6.78676 18.3885 6.56176 18.2785 6.35074 18.1501C6.13971 18.0218 5.93272 17.8843 5.72978 17.7376L4.02022 18.4526C3.56066 18.6543 3.1011 18.6726 2.64154 18.5076C2.18199 18.3426 1.82353 18.0493 1.56618 17.6276L0.27022 15.3726C0.0128675 14.951 -0.0606617 14.5018 0.0496324 14.0251C0.159927 13.5485 0.408088 13.1543 0.794118 12.8426L2.25551 11.7426C2.23713 11.6143 2.22794 11.4904 2.22794 11.3708V10.6283C2.22794 10.5095 2.23713 10.386 2.25551 10.2576L0.794118 9.15762C0.408088 8.84596 0.159927 8.45179 0.0496324 7.97512C-0.0606617 7.49846 0.0128675 7.04929 0.27022 6.62762L1.56618 4.37262C1.82353 3.95096 2.18199 3.65762 2.64154 3.49262C3.1011 3.32762 3.56066 3.34596 4.02022 3.54762L5.72978 4.26262C5.93199 4.11596 6.14338 3.97846 6.36397 3.85012C6.58456 3.72179 6.80515 3.61179 7.02574 3.52012L7.2739 1.70512C7.34743 1.22846 7.5636 0.825122 7.92243 0.495122C8.28125 0.165122 8.70846 0.00012207 9.20404 0.00012207H11.796C12.2923 0.00012207 12.7199 0.165122 13.0787 0.495122C13.4375 0.825122 13.6533 1.22846 13.7261 1.70512L13.9743 3.52012C14.2132 3.61179 14.4386 3.72179 14.6504 3.85012C14.8621 3.97846 15.0688 4.11596 15.2702 4.26262L16.9798 3.54762C17.4393 3.34596 17.8989 3.32762 18.3585 3.49262C18.818 3.65762 19.1765 3.95096 19.4338 4.37262L20.7298 6.62762C20.9871 7.04929 21.0607 7.49846 20.9504 7.97512C20.8401 8.45179 20.5919 8.84596 20.2059 9.15762L18.7445 10.2576C18.7629 10.386 18.7721 10.5099 18.7721 10.6294V11.3708C18.7721 11.4904 18.7537 11.6143 18.7169 11.7426L20.1783 12.8426C20.5643 13.1543 20.8125 13.5485 20.9228 14.0251C21.0331 14.5018 20.9596 14.951 20.7022 15.3726L19.3787 17.6276C19.1213 18.0493 18.7629 18.3426 18.3033 18.5076C17.8438 18.6726 17.3842 18.6543 16.9246 18.4526L15.2702 17.7376C15.068 17.8843 14.8566 18.0218 14.636 18.1501C14.4154 18.2785 14.1949 18.3885 13.9743 18.4801L13.7261 20.2951C13.6526 20.7718 13.4368 21.1751 13.0787 21.5051C12.7206 21.8351 12.293 22.0001 11.796 22.0001H9.20404ZM9.39706 19.8001H11.5754L11.9614 16.8851C12.5312 16.7385 13.0599 16.5232 13.5474 16.2394C14.0349 15.9556 14.4805 15.6117 14.8842 15.2076L17.614 16.3351L18.6893 14.4651L16.318 12.6776C16.4099 12.421 16.4743 12.1507 16.511 11.8669C16.5478 11.5831 16.5662 11.2942 16.5662 11.0001C16.5662 10.7061 16.5478 10.4175 16.511 10.1344C16.4743 9.85136 16.4099 9.58076 16.318 9.32262L18.6893 7.53512L17.614 5.66512L14.8842 6.82012C14.4798 6.39846 14.0342 6.04572 13.5474 5.76192C13.0607 5.47812 12.532 5.26252 11.9614 5.11512L11.6029 2.20012H9.42463L9.0386 5.11512C8.46875 5.26179 7.94044 5.47739 7.45368 5.76192C6.96691 6.04646 6.52096 6.39002 6.11581 6.79262L3.38603 5.66512L2.31066 7.53512L4.68198 9.29512C4.59007 9.57012 4.52574 9.84512 4.48897 10.1201C4.45221 10.3951 4.43382 10.6885 4.43382 11.0001C4.43382 11.2935 4.45221 11.5776 4.48897 11.8526C4.52574 12.1276 4.59007 12.4026 4.68198 12.6776L2.31066 14.4651L3.38603 16.3351L6.11581 15.1801C6.52022 15.6018 6.96618 15.9549 7.45368 16.2394C7.94118 16.524 8.46949 16.7392 9.0386 16.8851L9.39706 19.8001ZM10.5551 14.8501C11.6213 14.8501 12.5312 14.4743 13.2849 13.7226C14.0386 12.971 14.4154 12.0635 14.4154 11.0001C14.4154 9.93679 14.0386 9.02929 13.2849 8.27762C12.5312 7.52596 11.6213 7.15012 10.5551 7.15012C9.47059 7.15012 8.55625 7.52596 7.81213 8.27762C7.06801 9.02929 6.69559 9.93679 6.69485 11.0001C6.69412 12.0635 7.06654 12.971 7.81213 13.7226C8.55772 14.4743 9.47206 14.8501 10.5551 14.8501Z" fill="black"/>
</svg>
