<svg width="23" height="21" viewBox="0 0 23 21" fill="none" xmlns="http://www.w3.org/2000/svg">
<path d="M19.1667 4.77285C19.1667 5.30003 18.7393 5.72739 18.2121 5.72739H4.78788C4.2607 5.72739 3.83333 5.30003 3.83333 4.77285C3.83333 4.24567 4.2607 3.8183 4.78788 3.8183H18.2121C18.7393 3.8183 19.1667 4.24567 19.1667 4.77285ZM17.25 0.954668C17.25 0.427487 16.8226 0.00012207 16.2955 0.00012207H6.70455C6.17736 0.00012207 5.75 0.427487 5.75 0.954668C5.75 1.48185 6.17736 1.90921 6.70455 1.90921H16.2955C16.8226 1.90921 17.25 1.48185 17.25 0.954668ZM10.588 17.529C10.1978 17.9177 9.56683 17.9177 9.17663 17.529L7.39332 15.7528C7.0218 15.3827 7.0218 14.7812 7.39332 14.4111C7.76277 14.0431 8.36023 14.0431 8.72968 14.4111L9.17663 14.8563C9.56683 15.245 10.1978 15.245 10.588 14.8563L14.2933 11.1657C14.6628 10.7977 15.2602 10.7977 15.6297 11.1657C16.0012 11.5357 16.0012 12.1373 15.6297 12.5073L10.588 17.529Z" fill="black"/>
<path d="M21.0833 7.63649H1.91667C1.40833 7.63649 0.920823 7.83762 0.561379 8.19565C0.201934 8.55367 0 9.03925 0 9.54558V19.091C0 19.5974 0.201934 20.0829 0.561379 20.441C0.920823 20.799 1.40833 21.0001 1.91667 21.0001H21.0833C21.5917 21.0001 22.0792 20.799 22.4386 20.441C22.7981 20.0829 23 19.5974 23 19.091V9.54558C23 9.03925 22.7981 8.55367 22.4386 8.19565C22.0792 7.83762 21.5917 7.63649 21.0833 7.63649ZM21.0833 18.091C21.0833 18.6433 20.6356 19.091 20.0833 19.091H2.91667C2.36438 19.091 1.91667 18.6433 1.91667 18.091V10.5456C1.91667 9.99329 2.36438 9.54558 2.91667 9.54558H20.0833C20.6356 9.54558 21.0833 9.99329 21.0833 10.5456V18.091Z" fill="black"/>
</svg>
