<svg width="38" height="20" viewBox="0 0 38 20" fill="none" xmlns="http://www.w3.org/2000/svg">
<path d="M13.0002 10H25.0002M34.75 10V14.32C34.75 14.6064 34.6552 14.8811 34.4864 15.0837C34.3176 15.2862 34.0887 15.4 33.85 15.4H31.9002C31.6615 15.4 31.4326 15.2862 31.2638 15.0837C31.095 14.8811 31.0002 14.6064 31.0002 14.32V5.68C31.0002 5.39357 31.095 5.11886 31.2638 4.91632C31.4326 4.71378 31.6615 4.6 31.9002 4.6H33.85C34.0887 4.6 34.3176 4.71378 34.4864 4.91632C34.6552 5.11886 34.75 5.39357 34.75 5.68V10ZM34.75 10L37 10M3.25 10V14.32C3.25 14.6064 3.34482 14.8811 3.5136 15.0837C3.68239 15.2862 3.91131 15.4 4.15 15.4H6.10023C6.33892 15.4 6.56784 15.2862 6.73662 15.0837C6.9054 14.8811 7.00022 14.6064 7.00022 14.32V5.68C7.00022 5.39357 6.9054 5.11886 6.73662 4.91632C6.56784 4.71378 6.33892 4.6 6.10023 4.6H4.15C3.91131 4.6 3.68239 4.71378 3.5136 4.91632C3.34482 5.11886 3.25 5.39357 3.25 5.68V10ZM3.25 10L1 10M12.1002 1H7.90022C7.66153 1 7.43261 1.11379 7.26383 1.31632C7.09505 1.51886 7.00022 1.79357 7.00022 2.08V17.92C7.00022 18.0618 7.0235 18.2023 7.06873 18.3333C7.11396 18.4643 7.18026 18.5834 7.26383 18.6837C7.3474 18.784 7.44662 18.8635 7.55581 18.9178C7.665 18.9721 7.78203 19 7.90022 19H12.1002C12.2184 19 12.3354 18.9721 12.4446 18.9178C12.5538 18.8635 12.653 18.784 12.7366 18.6837C12.8202 18.5834 12.8865 18.4643 12.9317 18.3333C12.9769 18.2023 13.0002 18.0618 13.0002 17.92V2.08C13.0002 1.79357 12.9054 1.51886 12.7366 1.31632C12.5678 1.11379 12.3389 1 12.1002 1ZM30.1002 1H25.9002C25.6615 1 25.4326 1.11379 25.2638 1.31632C25.095 1.51886 25.0002 1.79357 25.0002 2.08V17.92C25.0002 18.0618 25.0235 18.2023 25.0687 18.3333C25.114 18.4643 25.1803 18.5834 25.2638 18.6837C25.3474 18.784 25.4466 18.8635 25.5558 18.9178C25.665 18.9721 25.782 19 25.9002 19H30.1002C30.2184 19 30.3354 18.9721 30.4446 18.9178C30.5538 18.8635 30.6531 18.784 30.7366 18.6837C30.8202 18.5834 30.8865 18.4643 30.9317 18.3333C30.9769 18.2023 31.0002 18.0618 31.0002 17.92V2.08C31.0002 1.79357 30.9054 1.51886 30.7366 1.31632C30.5678 1.11379 30.3389 1 30.1002 1Z" stroke="black" stroke-opacity="0.8" stroke-width="2" stroke-linecap="round" stroke-linejoin="round"/>
</svg>
