<svg width="56" height="56" viewBox="0 0 56 56" fill="none" xmlns="http://www.w3.org/2000/svg">
<path d="M56 28C56 43.464 43.464 56 28 56C12.536 56 0 43.464 0 28C0 12.536 12.536 0 28 0C43.464 0 56 12.536 56 28Z" fill="#0E1324"/>
<path d="M24.0152 0.281372C30.1635 1.15022 34.6584 4.01389 37.1139 8.63169C40.7457 15.4614 38.6081 23.9166 34.0686 29.6178C32.2023 31.9617 31.7503 33.8218 31.7943 35.2309C31.8403 36.7058 32.4508 38.2908 33.7306 39.974C36.384 43.464 41.1571 46.3573 45 47.8381L46.9237 48.6374C44.3448 51.0034 41.3211 52.8924 37.9924 54.1644C34.1382 52.1416 29.953 49.1646 27.0456 45.3406C25.0115 42.6653 23.435 39.3471 23.3153 35.5101C23.1936 31.6073 24.5974 27.7469 27.5029 24.0979C30.6195 20.1838 31.133 15.5636 29.6695 12.8114C28.4367 10.4932 24.5234 7.36844 13.8142 9.2992C10.9392 9.97558 8.54696 10.7918 4.7583 12.38C9.08425 5.95588 16.0033 1.42289 24.0152 0.281372Z" fill="#E7F461"/>
</svg>
