<svg width="140" height="98" viewBox="0 0 140 98" fill="none" xmlns="http://www.w3.org/2000/svg">
<path d="M52.805 2.29313C55.7025 0.33177 58.6726 -0.243839 60.985 0.0884991C63.1953 0.406187 65.0529 1.63597 65.2157 3.49584C66.3834 4.77691 66.4392 6.13394 66.3424 7.24427C66.3179 7.52603 66.2822 7.80349 66.2541 8.04492C66.225 8.29427 66.2033 8.51008 66.1979 8.70576C66.1871 9.10302 66.2485 9.31736 66.3623 9.4608L66.6647 9.84501C66.9553 10.2188 67.2099 10.5602 67.4205 10.8702C67.6973 11.2778 67.9217 11.6653 68.0472 12.0268C68.1734 12.3908 68.2266 12.8104 68.0367 13.2117C67.909 13.4817 67.701 13.6757 67.4647 13.821C67.3794 14.4856 67.3521 15.1041 67.3326 15.6736C67.3108 16.3101 67.299 16.9402 67.207 17.4514C67.1138 17.9692 66.9138 18.5202 66.3916 18.8614C65.8945 19.1861 65.2519 19.2219 64.5225 19.1152C64.4816 19.1109 64.4409 19.1061 64.4004 19.1018C64.3915 19.7162 64.5705 20.1064 64.8488 20.4012C65.2413 20.8169 65.9155 21.138 66.9488 21.4502L70.1189 21.1532C72.7358 20.7652 74.5006 21.077 75.8845 22.0223C77.1944 22.9171 78.0783 24.3356 79.0476 25.9081C79.9122 26.5127 80.6265 27.1462 81.1834 27.8212C81.3863 27.7469 81.6015 27.6969 81.812 27.6621C82.2753 27.5853 82.8231 27.5637 83.4125 27.5793C84.5938 27.6105 86.0256 27.7928 87.4541 28.0433C90.2904 28.5407 93.255 29.3333 94.3514 29.8384L94.6637 29.9881C96.1944 30.7515 97.2486 31.7311 97.5279 32.7808C97.6869 33.3784 97.5841 33.9771 97.2002 34.4787C96.8789 34.8986 96.3931 35.2096 95.7999 35.4236L95.5392 35.5094L95.5188 35.5149L90.8992 36.7344C91.8872 37.284 92.7722 37.9703 93.6319 38.7125C94.9644 39.8631 96.1707 41.079 97.7092 42.2943C98.0399 42.4176 98.5302 42.4838 99.1627 42.513C99.4908 42.5281 99.8369 42.5332 100.196 42.5378C100.551 42.5423 100.919 42.5462 101.277 42.5591C101.977 42.5843 102.712 42.645 103.304 42.8506C103.701 42.9885 104.089 43.2152 104.346 43.5754C105.783 43.1189 107.017 43.2026 108.323 43.2026C108.42 43.2026 108.511 43.2248 108.593 43.2636C109.019 43.2652 109.443 43.347 109.86 43.4901L110.388 43.3171C109.189 36.687 111.77 30.737 117.171 28.9961C120.457 27.7351 123.806 28.02 126.628 29.6025C129.297 31.0989 131.458 33.7346 132.672 37.2421L137.123 35.8991L137.132 35.8966C138.303 35.5625 139.266 36.0652 139.661 36.9025C140.041 37.7074 139.847 38.7707 138.905 39.3352C138.859 39.3627 138.809 39.3844 138.758 39.3996L133.535 40.9424C133.849 43.917 133.655 47.2782 132.402 50.0872C131.095 53.0149 128.646 55.3118 124.562 55.9237L124.162 55.9778C122.346 56.1953 120.447 55.812 118.904 55.072C121.888 61.7459 123.23 66.1995 124.956 72.9L125.062 73.2916C126.199 77.2833 128.542 79.4889 131.106 81.1563C132.452 82.0312 133.825 82.7376 135.166 83.5003C136.484 84.2499 137.756 85.0461 138.773 86.0618C139.845 87.1321 140.388 88.451 139.682 89.5297C139.35 90.0365 138.798 90.3706 138.137 90.5554C137.558 90.7175 136.862 90.7756 136.065 90.7244L135.718 90.6957C132.981 90.4224 131.393 89.1502 130.121 88.1862C129.476 87.697 128.959 87.3246 128.41 87.1208C127.893 86.9294 127.322 86.8796 126.564 87.1163C124.451 87.7755 122.598 87.756 121.334 87.0677C120.69 86.7168 120.205 86.1927 119.951 85.521C119.7 84.8546 119.695 84.0956 119.913 83.298L119.916 83.2871L119.985 83.0402C120.607 80.6694 120.072 78.8062 119.361 77.452L119.211 77.1788C117.802 74.706 117 73.4923 115.069 70.853L114.167 69.627C113.431 68.6287 112.622 67.7918 111.789 66.9682C110.965 66.1532 110.1 65.3348 109.313 64.4146C107.898 62.7619 106.719 60.7698 106.183 57.6901C104.838 58.9378 103.499 59.52 101.644 60.2661C101.808 61.5502 102.133 62.8879 102.804 64.4285L103.039 64.9817C104.173 67.7227 104.708 70.0791 105.183 72.2555C105.69 74.583 106.122 76.6708 107.122 78.8788L107.805 80.3859C109.336 83.7429 110.511 86.0593 113.112 88.8723L113.384 89.1618C114.714 90.5576 115.634 91.1929 116.541 91.7115C117.516 92.2689 118.606 92.7542 120.138 93.8661L120.398 94.0634C120.983 94.5268 121.4 95.0121 121.536 95.5343C121.62 95.8598 121.59 96.1854 121.443 96.4812C121.302 96.7631 121.076 96.9757 120.835 97.1361C120.364 97.4501 119.704 97.6496 118.998 97.7786C118.276 97.9104 117.439 97.9799 116.566 97.9962C114.821 98.0288 112.871 97.8505 111.294 97.497C110.508 97.3208 109.787 97.095 109.223 96.8143C108.725 96.5664 108.204 96.2051 108 95.6701C107.85 95.4441 107.53 95.2288 106.972 95.0137C106.372 94.7825 105.751 94.6339 105.026 94.397C104.37 94.1824 103.641 93.8964 103.142 93.4025C102.879 93.1431 102.673 92.8207 102.577 92.4249C102.483 92.0427 102.502 91.6328 102.616 91.1999C103.106 88.6253 102.959 87.1214 102.265 85.5983C101.906 84.8117 101.392 84.0007 100.701 83.0209C100.177 82.2776 99.5773 81.4739 98.8786 80.5193L98.1457 79.5109C95.8623 76.343 93.7782 73.7484 92.3343 71.1093C91.1507 71.6791 90.1447 72.0303 89.1548 72.1137C88.1145 72.2013 87.1484 71.9892 86.0696 71.5287C82.7378 74.4607 78.8755 74.7601 75.6591 73.4864C72.4763 72.2262 69.9175 69.4228 69.1262 66.1423L69.0552 65.8235C68.5476 63.3384 68.463 61.8358 68.6192 59.694C68.0967 59.7953 67.5624 59.8295 67.0416 59.7832L66.7933 59.7549C66.4607 59.7086 66.1338 59.6278 65.8205 59.51L51.2944 63.2793C51.4446 64.9734 51.448 66.7028 51.281 68.4302L51.2413 68.8129C50.978 71.1782 50.0429 74.2782 48.1735 76.6142C46.2797 78.9806 43.418 80.5595 39.4349 79.7672C34.9697 79.243 31.02 75.3285 28.8173 68.2304L17.1767 71.0196V80.2377L27.9567 84.3961L28.0376 84.4338C28.2176 84.534 28.3397 84.7167 28.3604 84.9251C28.4946 86.2767 28.3439 87.2644 27.7794 88.034C27.2386 88.7711 26.3857 89.2009 25.4485 89.6268C25.2999 89.6943 25.131 89.7021 24.9768 89.6486L0.823705 81.2723C0.625242 81.2035 0.473885 81.041 0.419002 80.8385C0.192255 80.0019 0.0413417 79.2686 0.00734655 78.6408C-0.0265586 78.0146 0.0517911 77.4288 0.349482 76.9399C0.65663 76.4355 1.14041 76.1258 1.72796 75.9479C2.22971 75.7959 2.83365 75.7312 3.531 75.7233H3.83589L3.88505 75.7258C3.93431 75.7301 3.98303 75.7399 4.03005 75.7555L10.0579 77.7614V70.6155C9.7745 69.9541 9.6057 69.157 9.58814 68.4208C9.5726 67.7691 9.673 67.0216 10.0579 66.4839V51.7093L2.3874 49.5557C2.03668 49.4708 1.78909 49.2373 1.62616 48.998C1.45762 48.7504 1.3459 48.4516 1.27012 48.1512C1.11781 47.5476 1.07835 46.8021 1.12909 46.076C1.17996 45.3482 1.32484 44.5905 1.57352 43.9631C1.80655 43.3752 2.20149 42.7249 2.8651 42.5041L2.94405 42.4832L46.7622 33.9279C46.9388 33.2719 47.0832 32.5848 47.1833 31.8517L47.2623 31.2925C47.6643 28.5377 48.191 26.4 49.3136 25.0043C50.4945 23.5362 52.2293 22.9927 54.7069 23.1412C54.7491 22.9757 54.7891 22.8141 54.826 22.6559L54.8906 22.3703C55.1736 21.0729 55.2696 19.9916 55.1945 18.8445C54.6565 18.4858 54.2517 18.1621 53.9292 17.8099C53.7262 17.5881 53.5637 17.3624 53.4212 17.1242C53.0015 17.4187 52.6297 17.7085 52.2841 17.9824C51.7994 18.3664 51.3332 18.7461 50.8793 19.025C50.413 19.3115 49.9078 19.5262 49.3221 19.5475C48.7361 19.5688 48.1438 19.3941 47.5041 19.0393C47.3137 18.9336 47.1907 18.7379 47.1784 18.5208C47.1661 18.3035 47.2662 18.095 47.4435 17.9685C47.7117 17.7773 47.935 17.4164 48.0806 16.8079C48.2252 16.2038 48.2734 15.4359 48.2579 14.5418C48.2263 12.7214 47.9464 10.6517 47.8145 8.59422C47.7502 7.59153 47.7239 6.61013 47.7951 5.72973C47.8657 4.85743 48.0354 4.0297 48.3999 3.36645C48.779 2.67681 49.3686 2.16987 50.2134 1.9937C50.9452 1.8411 51.8071 1.95031 52.805 2.29313ZM97.3949 48.2187C96.3721 47.7828 95.1746 47.6637 94.0286 47.7839C92.9515 47.8969 91.9664 48.2165 91.2612 48.6321L91.1237 48.7164C87.634 50.9561 85.3137 51.7617 81.532 53.4068C81.8423 57.5288 82.4358 60.1908 84.5159 62.5297C85.3327 61.9592 85.9599 61.459 86.521 60.8858C87.1786 60.2138 87.7654 59.4219 88.4541 58.2652C88.6336 57.9641 89.0234 57.8651 89.3251 58.0441C89.6268 58.2231 89.7259 58.6124 89.5466 58.9136C88.8252 60.1252 88.18 61.0066 87.4302 61.7727C86.8392 62.3766 86.1948 62.8957 85.4226 63.4439C86.3077 64.25 87.4109 65.0422 88.7963 65.8597L90.2259 63.659C90.1635 61.4327 90.5343 58.9086 91.442 55.8702L91.4638 55.8087C91.5866 55.5113 91.9176 55.3494 92.233 55.4433C92.5693 55.5435 92.7608 55.8968 92.6606 56.2326L92.4907 56.8171C91.67 59.7315 91.3884 62.104 91.5224 64.1766C91.5267 64.2427 91.5317 64.3084 91.5368 64.3739C91.5426 64.4472 91.5484 64.52 91.5552 64.5925C91.5604 64.648 91.5663 64.7031 91.5721 64.7581C91.5808 64.8407 91.5899 64.9229 91.5999 65.0045C91.6076 65.0676 91.6162 65.1303 91.6247 65.1929C91.6338 65.2589 91.6427 65.3248 91.6525 65.3902C91.6619 65.4519 91.6717 65.5134 91.6818 65.5746C91.6939 65.6477 91.706 65.7204 91.7191 65.7928C91.7295 65.8503 91.7407 65.9076 91.7519 65.9648C91.7675 66.0452 91.7835 66.1252 91.8005 66.2048C91.8101 66.2498 91.8203 66.2947 91.8303 66.3396C91.8475 66.4164 91.865 66.493 91.8834 66.5691C91.8977 66.628 91.9127 66.6866 91.9276 66.7451C91.9418 66.8005 91.9565 66.8557 91.9713 66.9107C91.9902 66.9807 92.0091 67.0505 92.0289 67.1199C92.0457 67.1785 92.0631 67.2367 92.0806 67.2949C92.0988 67.3557 92.1172 67.4164 92.1362 67.4769C92.1544 67.5347 92.1734 67.5923 92.1923 67.6499C92.2137 67.715 92.235 67.78 92.2574 67.8447C92.2845 67.9235 92.3128 68.0019 92.3413 68.0802C92.3545 68.1164 92.3675 68.1527 92.381 68.1888C92.4091 68.2642 92.4381 68.3393 92.4674 68.4143C92.4884 68.468 92.5089 68.5219 92.5305 68.5755C92.5601 68.6488 92.5911 68.7216 92.6218 68.7946C92.6375 68.8317 92.6526 68.8691 92.6685 68.9061C92.6945 68.9667 92.7217 69.0268 92.7485 69.0871C92.7773 69.152 92.8057 69.2172 92.8354 69.2819C92.8503 69.3146 92.8659 69.347 92.8811 69.3796C92.9743 69.5794 93.0711 69.7788 93.1725 69.9775L93.3046 70.2323C94.6926 72.8598 96.7479 75.3988 99.1775 78.7697L99.8986 79.7617C100.596 80.7142 101.218 81.5501 101.74 82.2901C102.444 83.288 103.013 84.1766 103.422 85.0728C104.26 86.9123 104.386 88.7055 103.862 91.4522L103.851 91.5018C103.772 91.7868 103.777 91.9848 103.812 92.124C103.845 92.2597 103.915 92.3813 104.036 92.5007C104.303 92.7648 104.769 92.9777 105.421 93.1908C106.005 93.3817 106.807 93.5899 107.43 93.8299C108.022 94.0582 108.671 94.3877 109.056 94.9617L109.129 95.0797L109.161 95.1446C109.171 95.1667 109.179 95.1895 109.186 95.2125C109.201 95.2608 109.317 95.4431 109.79 95.6785C110.226 95.8955 110.837 96.0937 111.572 96.2586C113.038 96.5872 114.886 96.7585 116.542 96.7276C117.369 96.7121 118.134 96.6463 118.769 96.5303C119.42 96.4114 119.875 96.2499 120.13 96.0801C120.253 95.9987 120.293 95.9388 120.305 95.916C120.309 95.9072 120.317 95.8963 120.305 95.8521C120.273 95.727 120.115 95.4631 119.622 95.0693L119.39 94.8928C117.933 93.8347 116.986 93.4278 115.909 92.8126C114.894 92.2318 113.878 91.5209 112.466 90.0398L112.178 89.7334C109.44 86.7719 108.192 84.299 106.649 80.9129L105.964 79.4018C104.899 77.0505 104.442 74.8276 103.94 72.5252C103.468 70.361 102.952 68.0957 101.863 65.4656L101.638 64.9346C100.877 63.1865 100.525 61.6672 100.357 60.212L100.326 59.9215C100.203 58.6943 100.203 57.4998 100.182 56.2812C100.182 56.246 100.18 56.2108 100.18 56.1756C99.8563 56.5851 99.452 56.9343 98.9566 57.1934C98.6456 57.356 98.2614 57.2361 98.0985 56.9257C97.9356 56.6152 98.0557 56.2316 98.3666 56.069C99.4817 55.4859 100.041 54.0814 99.9348 52.4594L99.9229 52.3017C99.764 50.5625 98.8698 48.9274 97.5265 48.2781L97.3949 48.2187ZM105.96 44.5253C105.41 44.5866 104.864 44.7101 104.262 44.9541L98.9447 47.6813C100.275 48.7411 101.028 50.4951 101.186 52.1634C101.391 53.6855 101.432 55.0205 101.453 56.2594C101.469 57.2016 101.473 58.0746 101.524 58.9454C103.464 58.1548 104.646 57.57 105.975 56.0913C105.869 54.9394 105.842 53.6565 105.908 52.215L105.914 52.1505C105.962 51.8323 106.243 51.5952 106.572 51.6101C106.923 51.6261 107.194 51.9229 107.178 52.273L107.157 52.8287C107.119 54.1041 107.16 55.2327 107.265 56.2395L107.302 56.5702C107.712 59.9415 108.869 61.9435 110.279 63.5901C111.022 64.4585 111.832 65.2244 112.683 66.0664C113.526 66.8999 114.393 67.7933 115.19 68.8739L116.098 70.1083C118.045 72.7694 118.877 74.0243 120.316 76.5512L120.488 76.866C121.335 78.4805 121.976 80.7599 121.14 83.6316L121.087 83.8503C120.985 84.3478 121.021 84.7541 121.141 85.0733C121.277 85.4327 121.539 85.7336 121.943 85.9538C122.777 86.4077 124.23 86.5151 126.184 85.9052C127.205 85.5867 128.065 85.6395 128.851 85.931C129.605 86.21 130.264 86.7008 130.89 87.1753C132.161 88.1388 133.496 89.1986 135.844 89.433L136.15 89.4578C136.84 89.5019 137.387 89.4474 137.795 89.3333C138.262 89.2024 138.505 89.0067 138.618 88.8346C138.801 88.5552 138.836 87.9193 137.874 86.9592C136.985 86.0713 135.84 85.3448 134.537 84.6033C133.256 83.8748 131.8 83.1215 130.413 82.2197C127.683 80.4446 125.088 78.0164 123.841 73.6451L123.724 73.2158C122.014 66.5753 120.695 62.1965 117.761 55.6292L117.152 54.2852C117.098 54.1691 117.044 54.0522 116.989 53.9352L116.82 53.5833C115.563 51.0074 114.489 48.5062 112.859 46.7631L112.7 46.5965C111.994 45.879 110.838 45.2751 109.966 44.8986L109.612 44.7513C109.012 44.5118 108.481 44.472 108.01 44.616C107.538 44.7602 107.042 45.1142 106.559 45.8177L105.51 45.1003C105.654 44.8913 105.804 44.6995 105.96 44.5253ZM11.8416 72.1558C11.7573 72.1735 11.6702 72.1742 11.5858 72.1573C11.496 72.1394 11.4105 72.1124 11.3291 72.0795V78.6423C11.3291 78.8462 11.2311 79.0377 11.0654 79.1569C10.8997 79.2762 10.6862 79.3087 10.4924 79.2442L3.72615 76.9924C2.99837 76.9899 2.47168 77.049 2.09691 77.1625C1.71985 77.2767 1.53809 77.4316 1.43597 77.5993C1.32448 77.7824 1.2497 78.076 1.27658 78.5724C1.2997 78.9995 1.39534 79.5288 1.56161 80.1846L25.1501 88.3651C25.9767 87.9786 26.4619 87.6821 26.754 87.2839C27.0157 86.9271 27.1769 86.4049 27.1245 85.4352L16.3122 81.2649C16.0672 81.1704 15.9055 80.9351 15.9055 80.673V71.3016L11.8416 72.1558ZM38.2148 46.6897C36.7109 46.1402 35.1925 46.0663 33.9572 46.5807L33.8386 46.6322C33.4161 46.824 33.0223 47.0898 32.6686 47.4398L32.5197 47.595C31.8424 48.3364 31.2803 49.0433 30.815 49.7431L30.6218 50.0425C28.7149 53.0819 28.5017 56.1836 28.8262 61.8545L36.1188 60.0901C36.2164 59.8946 36.3572 59.7336 36.4947 59.6107C36.752 59.3807 37.0806 59.2061 37.4158 59.0941C38.024 58.8908 38.9331 58.8138 39.563 59.3598C41.2607 60.5268 41.6575 62.5876 41.2916 64.2475C40.934 65.8688 39.7257 67.5011 37.8618 67.3455C37.4247 67.3383 37.0443 67.2271 36.7201 66.9414C36.555 66.7959 36.4212 66.6171 36.304 66.4273L30.0557 67.933C32.1935 74.7626 35.8656 78.0818 39.6047 78.51L39.8302 78.5323C40.959 78.627 42.117 78.4659 43.2739 78.0459L43.4263 77.9869C44.9891 77.3494 46.1462 75.7764 46.878 73.5003C47.6293 71.1634 47.8907 68.2001 47.7186 65.1061C47.5468 62.0172 46.9452 58.8362 46 56.0774C45.08 53.3918 43.8546 51.1649 42.4356 49.7947L42.2976 49.6648C42.2718 49.641 42.2481 49.6151 42.2266 49.5874C41.2249 48.3016 39.7627 47.2553 38.2148 46.6897ZM40.2249 46.2322C41.3638 46.8836 42.3964 47.7537 43.1934 48.7635C44.8777 50.3277 46.2285 52.8233 47.2027 55.6669C48.1882 58.5435 48.8101 61.8396 48.9879 65.0358C49.1654 68.227 48.9024 71.3572 48.0886 73.8885C47.9193 74.415 47.7235 74.9203 47.5011 75.3981C48.97 73.353 49.7489 70.7311 49.978 68.6726L50.0158 68.3083C50.1802 66.6069 50.1721 64.8999 50.0138 63.2272L49.9775 62.8693C49.9331 62.4568 49.8794 62.0466 49.8171 61.6393L49.7521 61.2328C49.5846 60.236 49.5458 59.8804 49.3375 59.1214L49.2372 58.7679C48.7963 57.2658 48.0442 55.1867 47.3785 53.8103L47.2469 53.5446C45.9055 50.9193 44.1909 48.7832 42.2936 47.4016L42.1094 47.2703C41.4972 46.8429 40.8675 46.4943 40.2249 46.2322ZM84.284 64.1176C83.2663 64.6016 82.369 65.3542 81.4833 66.2251C80.53 67.1625 79.5145 68.3224 78.4865 69.2204C78.1247 69.5365 77.7125 69.6951 77.2724 69.7043C76.8508 69.7131 76.4487 69.5838 76.0866 69.4088C75.3823 69.0684 74.6397 68.4547 73.9524 67.9057C73.2299 67.3287 72.5314 66.79 71.828 66.4621C71.3414 66.2352 70.8869 66.1257 70.4461 66.1641C71.2196 68.8803 73.406 71.2288 76.1278 72.3065C79.0131 73.449 82.4907 73.1605 85.5135 70.3186L85.7076 70.1316C86.5605 69.2931 87.3796 68.2411 88.1378 66.9459C86.5617 66.015 85.2978 65.0914 84.284 64.1176ZM89.5476 67.0361C88.7885 68.427 87.953 69.5937 87.0638 70.556C87.7907 70.8133 88.4123 70.9025 89.0475 70.849C89.8128 70.7846 90.6491 70.5094 91.7583 69.9775C91.7523 69.9648 91.7464 69.952 91.7404 69.9393C91.7185 69.8924 91.6959 69.8459 91.6744 69.799C91.6402 69.7244 91.6077 69.6493 91.5746 69.5744C91.5492 69.517 91.5233 69.4599 91.4986 69.4024C91.4727 69.342 91.4479 69.2811 91.4226 69.2204C91.3948 69.1535 91.3667 69.0868 91.3397 69.0197C91.3121 68.951 91.2859 68.8819 91.2593 68.8129C91.2377 68.7571 91.2157 68.7014 91.1947 68.6454C91.1711 68.5823 91.1485 68.5189 91.1259 68.4555C91.1223 68.4455 91.1188 68.4356 91.1152 68.4257C91.0943 68.3671 91.073 68.3086 91.0527 68.2497C91.0274 68.1762 91.0035 68.1022 90.9792 68.0281C90.9613 67.9735 90.9429 67.919 90.9256 67.8641C90.9028 67.792 90.8812 67.7195 90.8595 67.6469C90.8392 67.579 90.8189 67.511 90.7994 67.4427C90.7794 67.3724 90.7604 67.3018 90.7413 67.231C90.7397 67.225 90.7382 67.2191 90.7365 67.2132C90.722 67.1592 90.7075 67.1052 90.6937 67.051C90.6758 66.9812 90.6589 66.9111 90.642 66.8408C90.6241 66.7662 90.6062 66.6914 90.5894 66.6162C90.5742 66.5486 90.56 66.4806 90.5457 66.4125C90.5319 66.3467 90.5184 66.2808 90.5055 66.2147C90.4908 66.1393 90.4769 66.0636 90.4633 65.9876C90.4523 65.9265 90.4412 65.8652 90.431 65.8037C90.4253 65.7698 90.419 65.736 90.4136 65.702L89.5476 67.0361ZM11.3291 70.3304C11.416 70.4981 11.5056 70.6317 11.5923 70.73C11.6388 70.6356 11.6832 70.5142 11.7174 70.3592C11.7997 69.9863 11.804 69.5163 11.7204 69.0435C11.6462 68.6235 11.5087 68.236 11.3291 67.9359C10.8475 67.6062 10.899 69.5 11.3291 70.3304ZM28.3862 63.2674C28.3839 63.268 28.3812 63.2688 28.3788 63.2694L16.6861 65.9559L12.2314 67.0029C12.257 67.0371 12.2819 67.0716 12.3059 67.1065C12.6474 67.6034 12.8653 68.2179 12.9723 68.8228C13.0788 69.4255 13.0826 70.0625 12.9603 70.6234L16.403 69.8996L29.1043 66.8567L36.4773 65.0799L36.4853 65.0784L36.6303 65.0387C37.35 64.8129 37.98 64.1497 38.1205 63.4354C38.1912 63.0761 38.1401 62.7 37.9055 62.3339C37.6841 61.9886 37.2745 61.6151 36.5662 61.2878L28.3862 63.2674ZM80.2881 53.8158C79.2309 54.1579 78.4207 54.7064 77.6076 55.4121C77.1052 55.8482 76.6122 56.3344 76.0489 56.8786C75.4907 57.4177 74.8752 58.0015 74.153 58.6028C73.8834 58.8273 73.4825 58.7911 73.2577 58.522C73.0329 58.2528 73.069 57.8526 73.3386 57.6281C73.439 57.5445 73.5371 57.4608 73.6336 57.3778C73.2859 57.319 72.8785 57.2883 72.334 57.2737C72.0551 57.7235 71.6996 58.1173 71.2962 58.4506L71.0742 58.6246C70.7195 58.888 70.3318 59.1094 69.9267 59.2869C69.7456 61.4004 69.7733 62.7645 70.1735 64.9178C70.9519 64.8099 71.6942 64.999 72.3663 65.3124C73.228 65.7142 74.0393 66.3495 74.7469 66.9147C75.4895 67.5078 76.0978 68.0042 76.6408 68.2666C76.9023 68.393 77.0982 68.4387 77.2456 68.4357C77.3746 68.433 77.5027 68.3932 77.6493 68.2651C78.6553 67.3864 79.5225 66.3715 80.591 65.3208C81.4157 64.5098 82.321 63.724 83.3767 63.1544C81.2238 60.6142 80.6023 57.7359 80.2881 53.8158ZM38.7372 60.3246C38.6216 60.2182 38.2837 60.1422 37.8195 60.2973C37.7376 60.3247 37.6625 60.3579 37.5946 60.392C38.2107 60.7484 38.67 61.1723 38.9761 61.6497C39.397 62.3064 39.498 63.0179 39.3679 63.6799C39.1731 64.6698 38.4677 65.5351 37.5842 66.0074C37.6233 66.0366 37.6842 66.0668 37.822 66.0754L37.9005 66.0778L37.9551 66.0803C38.8754 66.1637 39.7463 65.3503 40.0496 63.9748C40.3338 62.6861 40.0076 61.2634 38.9214 60.4609L38.8142 60.3855C38.7871 60.3673 38.7612 60.3467 38.7372 60.3246ZM11.3291 65.9108L15.9055 64.836V52.7771L11.3291 51.9824V65.9108ZM28.7835 50.7554C23.9902 52.1909 20.627 53.2207 17.1767 52.9477V64.5415L27.5699 62.1524C27.2715 57.105 27.3492 53.793 28.7835 50.7554ZM51.0953 61.5957C51.1154 61.7316 51.1347 61.8677 51.1529 62.0042L64.9441 58.4263C64.9065 58.2809 64.8893 58.1316 64.8944 57.9767L51.0953 61.5957ZM50.63 59.0396C50.7521 59.5164 50.8154 59.8674 50.8927 60.3365L65.3255 56.5514C65.3532 56.3237 65.3216 56.1713 65.2718 56.0655C65.1996 55.9119 65.0393 55.7442 64.6909 55.5851C64.581 55.535 64.4596 55.4893 64.3269 55.4468L50.63 59.0396ZM55.126 24.4471C52.5546 24.2026 51.1837 24.7062 50.3048 25.799C49.4178 26.9018 48.9252 28.7128 48.5221 31.461L48.4426 32.0232C48.3304 32.845 48.1677 33.613 47.9674 34.3434L47.8795 34.6542C47.2605 36.7683 46.3254 38.5914 45.4349 40.4714C44.5873 42.2609 43.7593 44.1403 43.1889 46.4845C45.1556 47.9594 46.8804 50.1244 48.2341 52.6929C53.0249 53.6346 57.6369 53.5561 61.05 53.7355C62.3617 53.8044 63.5485 53.9138 64.4758 54.1682C64.5008 54.1738 64.5254 54.1806 64.5493 54.1891C64.7921 54.2588 65.0166 54.3383 65.2197 54.431C65.7313 54.6646 66.1786 55.0079 66.4224 55.5261C66.6674 56.047 66.6551 56.6341 66.474 57.2464C66.4625 57.2853 66.4471 57.3229 66.4284 57.3589C66.2364 57.7281 66.1747 57.8836 66.1657 58.0029C66.1617 58.0556 66.1639 58.1456 66.2779 58.3262C66.3783 58.3635 66.4826 58.3945 66.5897 58.4218C67.103 57.5817 67.3105 56.6118 67.1568 55.7368C66.9977 54.8318 66.4465 53.9811 65.3379 53.44L65.1085 53.3364L65.0499 53.3081C64.7673 53.1538 64.6424 52.8076 64.7703 52.505C64.8983 52.2022 65.234 52.05 65.542 52.1446L65.6031 52.1669L65.7555 52.2338C67.3097 52.9411 68.1707 54.1607 68.4092 55.5172C68.5854 56.5199 68.4155 57.5672 67.9806 58.5081C68.0596 58.4997 68.1387 58.489 68.218 58.4764C68.8319 57.0799 68.9216 56.1671 68.7647 55.3957C68.6322 54.7445 68.3199 54.1465 67.8629 53.3929L67.3589 52.5793L67.3271 52.5228C67.1852 52.2341 67.2827 51.8791 67.562 51.7053C67.8413 51.5316 68.2031 51.6007 68.4002 51.855L68.4375 51.9081L68.941 52.7182C69.4256 53.5152 69.8357 54.2863 70.0101 55.1434C70.1828 55.992 70.1205 56.8842 69.7797 57.9464C69.8985 57.8819 70.0139 57.8126 70.1253 57.7387C70.374 56.5796 70.4185 55.7613 70.2852 55.0393C70.1612 54.3678 69.8764 53.7312 69.3775 52.9447L69.1505 52.5982L69.1168 52.5422C68.9651 52.2585 69.0503 51.9005 69.3233 51.7172C69.3525 51.6977 69.3828 51.6813 69.4137 51.6671C68.9734 51.5873 68.4321 51.5567 67.8034 51.5541L67.3977 51.5561C66.5328 51.5667 65.4708 51.6188 64.5146 51.6166C63.5336 51.6143 62.5314 51.5583 61.6424 51.3365C59.392 50.7748 57.7712 49.8171 56.2318 48.9127C54.7859 48.0633 53.4128 47.2618 51.5864 46.7666L51.215 46.6719C50.0063 46.3819 48.5836 46.2218 46.8164 46.2788C46.4656 46.29 46.1723 46.0152 46.1609 45.665C46.1496 45.3147 46.4248 45.0214 46.7757 45.0101C48.4043 44.9577 49.781 45.0791 50.9885 45.3224C51.1268 45.0028 51.2606 44.691 51.3883 44.385L51.7572 43.4822C52.5875 41.4093 53.2114 39.5445 53.8642 37.3417L54.1522 36.3562C54.4433 35.3456 54.7465 34.2553 55.0818 33.0386L55.1021 32.9766C55.2186 32.6768 55.5461 32.5077 55.8634 32.5948C56.2017 32.6879 56.4004 33.0373 56.3073 33.3752L55.6717 35.6611C55.5717 36.0159 55.4731 36.3605 55.3762 36.6967C56.4045 36.3486 57.1545 35.5714 57.654 34.5085C57.7516 34.3008 57.8383 34.0832 57.9157 33.8575C57.7777 33.6941 57.6445 33.5336 57.5179 33.3801C57.3186 33.1385 57.1354 32.917 56.9578 32.7178C56.5893 32.3045 56.3078 32.062 56.0704 31.9588C55.8955 31.8828 55.7281 31.87 55.4666 32.0356C55.1557 32.2325 54.7386 32.6724 54.2013 33.5403C54.0168 33.8384 53.625 33.9308 53.3264 33.7465C53.0278 33.5622 52.9353 33.1711 53.1198 32.873C53.6884 31.9546 54.2286 31.3166 54.7858 30.9638C55.3923 30.5798 56.004 30.5458 56.5779 30.7952C57.0895 31.0176 57.5274 31.4479 57.9072 31.874C58.0302 32.0119 58.1536 32.1577 58.2772 32.3058C58.3668 31.6571 58.393 30.9788 58.3571 30.299C58.2771 28.7847 57.895 27.3217 57.295 26.2328C56.7252 25.199 56.0209 24.6009 55.2754 24.4674L55.126 24.4471ZM48.9089 54.1073C49.4108 55.2718 49.9099 56.6562 50.276 57.8205L61.0108 55.0046C61.0017 55.0041 60.9926 55.0036 60.9835 55.0031C57.8875 54.8404 53.4945 54.895 48.9089 54.1073ZM91.5746 49.0719C91.9252 49.0895 92.195 49.3876 92.1774 49.7377L92.166 50.0064C92.1198 51.3235 92.2528 52.224 92.7549 53.0171C93.2686 53.8283 94.2237 54.6142 96.0298 55.5484L96.4022 55.7368L96.4593 55.769C96.7316 55.9408 96.8349 56.294 96.6882 56.588C96.5416 56.8821 96.1971 57.0127 95.8957 56.8994L95.8361 56.8731L95.4508 56.6783C93.5718 55.7073 92.3743 54.7912 91.6803 53.6953C90.9279 52.5069 90.831 51.2069 90.9082 49.6737L90.9146 49.6093C90.9632 49.2913 91.2459 49.0554 91.5746 49.0719ZM98.5856 45.2233C98.0183 45.0662 97.1581 45.1191 95.5039 45.4999L84.5849 48.2484C84.5814 48.2493 84.578 48.2505 84.5745 48.2514L71.5867 51.5204C72.8247 53.143 73.1698 54.6909 72.8559 56.0239C73.6113 56.0648 74.1758 56.1564 74.7548 56.359C74.894 56.2268 75.0308 56.0964 75.165 55.9669C75.7125 55.438 76.2382 54.9189 76.7734 54.4543C77.8486 53.521 79.0027 52.7704 80.6635 52.4004C84.7355 50.6145 86.9477 49.8881 90.4364 47.649L90.6107 47.5415C91.5018 47.0152 92.6717 46.6501 93.896 46.5217C95.1079 46.3946 96.4184 46.495 97.6104 46.9386L99.5857 45.9258C99.2411 45.5269 98.9514 45.3246 98.5856 45.2233ZM70.2465 51.9532C70.9058 52.9408 71.352 53.8147 71.5356 54.8088C71.5886 55.0961 71.6174 55.3885 71.6264 55.6907C71.8224 54.7891 71.6103 53.648 70.5826 52.2987L70.4525 52.1327C70.403 52.0708 70.336 52.0107 70.2465 51.9532ZM121.004 29.7794C119.828 29.7222 118.751 29.852 117.778 30.1374L117.585 30.1964C113.033 31.6495 110.549 36.7388 111.608 42.918L116.807 41.2171C116.926 40.6679 117.24 40.1972 117.639 39.8428C118.149 39.3911 118.826 39.0969 119.528 39.0298C120.237 38.9622 120.997 39.1242 121.636 39.6202C122.277 40.1182 122.736 40.9055 122.931 41.9771L122.957 42.1332C123.184 43.7408 122.363 45.1405 121.222 45.788C120.628 46.1245 119.924 46.2705 119.226 46.1038C118.667 45.97 118.159 45.6461 117.745 45.139L114.249 46.4245C115.771 48.2767 116.834 50.7041 117.911 52.9199C119.222 54.1008 121.56 54.9381 123.79 54.7408L124.01 54.7175C125.403 54.5507 126.703 53.9733 127.671 52.8461L127.838 52.6473C131.302 48.4468 131.488 42.8753 129.824 38.2286C128.98 35.8734 127.672 33.7903 126.116 32.2815C124.606 30.8177 122.896 29.9231 121.171 29.7898L121.004 29.7794ZM3.24646 43.7177C3.1409 43.7669 2.9457 43.9498 2.75536 44.4301C2.5671 44.9051 2.44183 45.5278 2.39733 46.1642C2.35273 46.8024 2.39273 47.4059 2.5026 47.8414C2.5579 48.0605 2.62302 48.204 2.67789 48.2846C2.69365 48.3077 2.70575 48.3212 2.71315 48.3287C2.71873 48.3301 2.72449 48.3316 2.73003 48.3332L10.8335 50.6082L16.632 51.6151C20.3016 52.0973 23.7269 50.9285 29.6763 49.1641C30.2005 48.3587 30.83 47.561 31.5802 46.7398L31.7743 46.5375C32.229 46.0878 32.7393 45.7408 33.2874 45.4885C36.3166 43.8476 39.3772 44.1518 42.0677 45.7359C42.6623 43.4727 43.4793 41.6318 44.2859 39.9291C45.0418 38.3333 45.7715 36.8866 46.3317 35.3057L3.24646 43.7177ZM127.002 31.3713C128.714 33.0318 130.121 35.2874 131.021 37.8018C132.499 41.9289 132.639 46.8468 130.418 51.0564C130.734 50.5894 131.008 50.0924 131.24 49.5711C132.365 47.0521 132.569 43.9584 132.276 41.1283L132.211 40.5661C132.17 40.2428 132.118 40.0039 132.058 39.764C132 39.5324 131.926 39.2654 131.858 38.9396C131.826 38.8184 131.794 38.6982 131.76 38.5791L131.653 38.2153C130.699 35.1022 128.987 32.7442 126.892 31.2687C126.928 31.303 126.966 31.3365 127.002 31.3713ZM74.9961 36.5024C73.8346 38.0534 72.671 39.0289 71.5073 39.6847C70.2577 40.3888 69.0378 40.707 67.926 40.992C66.7974 41.2813 65.7988 41.5331 64.8408 42.0787C63.9905 42.563 63.1483 43.2958 62.3212 44.5446C64.1418 46.4001 66.0433 48.3476 67.6832 50.285C68.5903 50.2832 69.489 50.331 70.2127 50.5576L83.2923 47.2648C82.3895 46.0504 81.9462 44.8343 81.6685 43.6597C81.5019 42.9549 81.3928 42.2554 81.2827 41.6052C81.1849 41.0276 81.0856 40.4828 80.9435 39.9573L80.88 39.7338C80.6362 38.916 80.3011 38.1311 79.7667 37.3769C77.9534 37.2782 76.7696 37.1192 74.9961 36.5024ZM52.4395 45.1608C52.3738 45.3167 52.3073 45.4742 52.2389 45.6333C54.0917 46.183 55.51 47.0164 56.8764 47.8191C58.419 48.7253 59.8977 49.5932 61.9503 50.1055C62.6872 50.2894 63.5663 50.3453 64.5176 50.3474C65.0337 50.3486 65.5348 50.3345 66.0351 50.3197C64.9469 49.0831 63.7653 47.8427 62.5745 46.6193L61.0609 45.0731C60.4763 44.4772 59.8995 43.8867 59.3408 43.3077L52.4395 45.1608ZM82.6165 41.8655C82.7017 42.3721 82.7873 42.868 82.9055 43.3682C83.1871 44.5597 83.6417 45.7433 84.644 46.9247L90.5422 45.4399C89.4403 45.1362 88.3115 44.805 87.2584 44.437C85.4672 43.8112 83.768 43.0411 82.8047 42.0405C82.7413 41.9833 82.6788 41.9247 82.6165 41.8655ZM106.559 45.8177C106.361 46.1068 105.965 46.1804 105.675 45.9823C105.386 45.7842 105.312 45.3894 105.51 45.1003L106.559 45.8177ZM118.697 42.2274C118.536 42.1512 118.282 42.103 117.901 42.1947L111.575 44.2645C112.166 44.5809 112.784 44.9711 113.3 45.4211L117.753 43.7831L118.988 43.2601C119.031 43.2387 119.085 43.1898 119.113 43.0687C119.143 42.9391 119.131 42.7655 119.057 42.5997C118.985 42.4397 118.864 42.3064 118.697 42.2274ZM82.6061 31.3897C82.6666 33.0337 82.0359 34.8021 80.8666 36.731C81.4399 37.5625 81.8027 38.4157 82.0643 39.2653C82.4954 39.8782 82.9292 40.3945 83.3832 40.8398C84.1002 40.5231 84.5611 40.1728 84.925 39.7402C85.3645 39.2177 85.6963 38.5396 86.1272 37.5276L86.1555 37.4691C86.3108 37.1873 86.658 37.063 86.961 37.1915C87.284 37.3286 87.4344 37.7014 87.2971 38.0239L87.1372 38.3942C86.7664 39.2398 86.4019 39.9581 85.8988 40.5562C85.499 41.0316 85.0266 41.4141 84.429 41.7401C85.223 42.2761 86.3517 42.7757 87.6785 43.2393C89.4013 43.8412 91.3411 44.3465 93.0717 44.8034L95.201 44.2675L95.2134 44.2645C96.8614 43.8848 98.0132 43.7476 98.9253 44.0003C99.7146 44.2189 100.248 44.706 100.743 45.3324L103.083 44.1321C103.028 44.1043 102.964 44.0761 102.887 44.0493C102.491 43.9118 101.924 43.8522 101.231 43.8272C100.892 43.815 100.54 43.8115 100.179 43.8069C99.8219 43.8024 99.4561 43.7968 99.104 43.7806C98.4632 43.7511 97.79 43.6844 97.2469 43.4787L97.1401 43.4356C97.1147 43.4247 97.0899 43.412 97.0661 43.3979L96.9976 43.3513C95.4087 42.1049 94.0458 40.7479 92.8001 39.6723C91.6023 38.638 90.4442 37.7959 89.0739 37.2803L88.7973 37.1816C88.4229 37.0555 88.0302 36.9529 87.6149 36.8772C87.4548 36.848 87.3118 36.7581 87.2157 36.6268C86.0536 35.0388 84.6875 33.5593 82.6061 31.3897ZM119.649 40.293C119.21 40.3349 118.788 40.5222 118.484 40.7917C118.452 40.8198 118.422 40.8488 118.394 40.878C118.701 40.8907 118.985 40.9596 119.241 41.0807C119.71 41.3022 120.034 41.6745 120.217 42.0817C120.397 42.4832 120.448 42.9387 120.351 43.3558C120.259 43.7515 120.023 44.1411 119.61 44.3681L119.525 44.4112L119.504 44.4212L119.022 44.6249C119.19 44.7545 119.36 44.8305 119.522 44.8693C119.858 44.9495 120.234 44.8886 120.594 44.6844C121.3 44.2839 121.85 43.3824 121.698 42.3087L121.681 42.2041C121.53 41.3723 121.201 40.8901 120.856 40.6222C120.508 40.3523 120.082 40.2516 119.649 40.293ZM54.9358 38.19C54.3531 40.1232 53.7766 41.8296 53.0429 43.685L58.3422 42.2616C56.9922 40.8259 55.7896 39.4487 54.9358 38.19ZM56.7487 23.7233C57.4296 24.1707 57.9838 24.8508 58.4083 25.621C59.1188 26.9103 59.5389 28.5679 59.6269 30.2321C59.6917 31.4595 59.5765 32.7219 59.2435 33.8714C59.2429 33.8739 59.2427 33.8764 59.242 33.8789C59.1241 34.2848 58.9794 34.6768 58.805 35.0479C58.2513 36.2261 57.3905 37.2153 56.1757 37.7487C57.108 39.0624 58.4516 40.5493 59.9968 42.1595L60.9666 43.1609C61.1146 43.3127 61.264 43.4648 61.414 43.618C62.2953 42.3502 63.2283 41.5364 64.2112 40.9766C65.3071 40.3525 66.4375 40.0631 67.5066 39.7894C67.541 39.7806 67.5754 39.7718 67.6097 39.763C68.7257 39.4769 69.7955 39.1922 70.8826 38.5796C71.9602 37.9724 73.0836 37.0246 74.2429 35.38L74.2905 35.3086C74.7664 34.5531 74.7752 33.2138 74.0263 31.6385C73.2955 30.1011 71.8942 28.4771 69.8288 27.2788C66.4471 27.99 63.8821 27.1204 61.6464 26.036C61.1053 25.7735 60.5797 25.4968 60.0718 25.2294C60.0473 25.2165 60.0228 25.2036 59.9983 25.1907C59.4641 24.9095 58.9496 24.6397 58.4356 24.3965C57.8669 24.1274 57.3096 23.8961 56.7487 23.7233ZM138.511 37.4429C138.398 37.2021 138.091 36.9441 137.485 37.1152L133.044 38.4562L133.091 38.6327L133.098 38.6614C133.161 38.9646 133.224 39.1839 133.292 39.4581C133.309 39.5288 133.326 39.601 133.343 39.6758L138.308 38.2088C138.586 38.0089 138.632 37.6998 138.511 37.4429ZM70.5528 23.2825C71.2079 23.7914 71.6296 24.3254 71.7843 24.8858C71.9611 25.5262 71.76 26.0904 71.3911 26.4945C71.3389 26.5517 71.2827 26.6049 71.2247 26.6557C73.0981 27.9184 74.4253 29.519 75.1744 31.0947C75.8823 32.5838 76.1141 34.1577 75.6591 35.3875C77.1306 35.878 78.1637 36.0161 79.7607 36.1053C81.4269 33.3705 81.7345 31.3419 80.8651 29.6262L80.7737 29.4547C80.7314 29.379 80.6861 29.3036 80.6386 29.2282L80.4882 29.0021C80.0027 28.3103 79.2935 27.6304 78.3266 26.9531C75.0382 26.3755 73.2833 24.9969 70.5528 23.2825ZM83.3792 28.8479C82.8318 28.8335 82.3727 28.8555 82.0201 28.9138C82.0106 28.9154 82.0011 28.9172 81.9918 28.9188C82.0596 28.9891 82.1268 29.0588 82.1934 29.1279C84.9397 31.9763 86.669 33.7699 88.0931 35.6785C88.4114 35.7449 88.7185 35.8258 89.0163 35.9194L95.1747 34.2933C95.7334 34.1258 96.0411 33.9031 96.1902 33.7083C96.3227 33.5352 96.3629 33.345 96.2994 33.1065C96.1615 32.5883 95.5135 31.8326 94.1096 31.1304L93.8191 30.9911C92.8813 30.559 90.054 29.7876 87.2341 29.2931C85.8344 29.0477 84.4718 28.8768 83.3792 28.8479ZM56.0501 15.9959C56.0452 15.9966 56.0405 15.9977 56.0357 15.9984C56.2326 16.8732 56.3684 17.6648 56.4374 18.4276L56.4597 18.7082C56.5426 19.8991 56.4576 21.0153 56.2075 22.2766C57.1856 22.4718 58.1001 22.8335 58.9798 23.2498C59.5218 23.5063 60.0593 23.7878 60.5912 24.0678C61.1268 24.3497 61.6573 24.63 62.2021 24.8942C64.3604 25.9411 66.6829 26.7045 69.7891 25.9889L69.8949 25.9611C70.1358 25.8887 70.3334 25.7692 70.4515 25.6399C70.5672 25.5132 70.6044 25.3887 70.5588 25.2234C70.5016 25.0161 70.2875 24.6612 69.662 24.2007C69.0477 23.7483 68.0926 23.2362 66.6692 22.6926C65.5652 22.3656 64.5753 21.9619 63.9237 21.2717C63.3481 20.662 63.0937 19.8971 63.1326 18.959C61.0018 18.7037 59.3146 18.4006 58.084 17.8267C57.3942 17.505 56.8229 17.088 56.3927 16.5288C56.2635 16.3608 56.1497 16.1832 56.0501 15.9959ZM75.1665 23.0698C74.3017 22.4791 73.1681 22.1577 71.3662 22.29C73.6722 23.737 75.0638 24.7943 77.2287 25.4059C76.5561 24.3784 75.9447 23.6015 75.1665 23.0698ZM60.8037 1.34475C58.7744 1.05312 56.0126 1.57207 53.2658 3.51865C53.0926 3.64141 52.8693 3.66972 52.6709 3.594C51.6447 3.20225 50.9439 3.13806 50.4736 3.23607C50.0393 3.32662 49.739 3.56782 49.5142 3.97673C49.275 4.41198 49.1269 5.03366 49.0624 5.83185C48.9985 6.62214 49.0199 7.53308 49.0827 8.51341C49.2051 10.4219 49.4972 12.6833 49.5291 14.5195C49.5454 15.4537 49.4983 16.3457 49.3171 17.1029C49.2206 17.5061 49.0792 17.8941 48.8742 18.2362C49.024 18.2708 49.1559 18.2832 49.2754 18.2788C49.5635 18.2684 49.853 18.1653 50.2129 17.9442C50.5853 17.7154 50.9773 17.3975 51.4936 16.9884C51.8981 16.6679 52.3603 16.3078 52.9033 15.9389L52.8035 15.6394L52.7861 15.577C52.7156 15.2631 52.893 14.9407 53.2052 14.8368C53.5175 14.7329 53.8537 14.8844 53.9858 15.1779L54.0092 15.2384L54.2515 15.9651C54.4418 16.3872 54.6152 16.6773 54.8677 16.9532C54.8956 16.9837 54.9251 17.0141 54.9556 17.0449C54.8664 16.5757 54.7536 16.0768 54.618 15.5343C54.137 15.1199 53.6561 14.7225 53.2708 14.3435C52.8638 13.9434 52.499 13.5038 52.2826 12.9713C51.6745 12.2338 51.2809 11.5181 51.0804 10.6179C50.878 9.70928 50.8819 8.65248 50.993 7.26559C51.0211 6.91633 51.3274 6.65565 51.6773 6.68357C52.0271 6.71151 52.2881 7.01747 52.2603 7.36672C52.1511 8.72861 52.1622 9.62772 52.3213 10.3423C52.335 10.4034 52.35 10.4635 52.366 10.5227C52.6129 10.1205 52.957 9.80269 53.4257 9.69777C53.8875 9.59441 54.3354 9.72861 54.7227 9.93623C55.1961 10.19 55.6999 10.6204 56.2288 11.1632C56.2914 10.8899 56.3699 10.6455 56.4607 10.4236C56.6844 9.87682 56.9774 9.47805 57.1639 9.19161C57.3553 8.89765 57.4508 8.70415 57.4727 8.45144C57.496 8.18332 57.4405 7.76926 57.1415 7.05291C57.0847 6.91686 57.0772 6.76509 57.1202 6.62407C57.3916 5.73252 57.8286 5.06931 58.4043 4.58701C58.9737 4.11003 59.6404 3.84222 60.3216 3.6763C60.9971 3.51176 61.7223 3.43991 62.4186 3.37736C62.9128 3.33296 63.3938 3.29158 63.8641 3.23111C63.5655 2.37959 62.5448 1.59499 60.8037 1.34475ZM64.3567 4.44423C63.7357 4.53822 63.1112 4.58908 62.5328 4.64104C61.83 4.70418 61.1939 4.7702 60.623 4.90925C60.0577 5.04695 59.5924 5.24859 59.2217 5.55919C58.8947 5.83306 58.6102 6.21761 58.4043 6.78916C58.6748 7.49053 58.7827 8.05683 58.739 8.561C58.6894 9.13316 58.4513 9.5426 58.2295 9.88319C58.0029 10.2312 57.8032 10.4986 57.6376 10.9035C57.4777 11.2943 57.3471 11.8304 57.3471 12.6465C57.3471 12.9127 57.1807 13.1507 56.9305 13.2424C56.6802 13.3341 56.3993 13.26 56.2268 13.057C55.3307 12.0024 54.6374 11.3313 54.1214 11.0547C53.8735 10.9218 53.7499 10.9259 53.7038 10.9362C53.6757 10.9425 53.5947 10.9683 53.4808 11.137C53.3004 11.7198 53.3233 12.1153 53.4371 12.4329L53.4858 12.5528C53.612 12.8321 53.8307 13.1123 54.1631 13.4393C54.5339 13.8038 54.9768 14.1638 55.5207 14.635C55.5432 14.6439 55.5643 14.6531 55.5848 14.6608L55.5709 14.4878C55.536 14.1463 55.7792 13.839 56.1201 13.7942C56.461 13.7496 56.7761 13.9838 56.8307 14.3227L56.8719 14.5458C56.9788 15.0492 57.1574 15.4397 57.4007 15.7559C57.6795 16.1182 58.0717 16.4198 58.6223 16.6766C59.7542 17.2044 61.4468 17.4971 63.9013 17.7717L64.6596 17.8535L64.6874 17.8575L64.9103 17.8852C65.3911 17.9325 65.6028 17.86 65.6954 17.7994C65.7814 17.7432 65.8853 17.6178 65.9556 17.2273C66.0271 16.8302 66.0382 16.3194 66.0619 15.63C66.0848 14.963 66.1199 14.1759 66.2531 13.3118L66.2709 13.231C66.3245 13.0469 66.4595 12.895 66.6399 12.821C66.7503 12.7758 66.8153 12.7351 66.8514 12.706C66.8687 12.6922 66.8782 12.6823 66.8827 12.6768C66.885 12.674 66.8867 12.6708 66.8867 12.6708L66.8872 12.6698L66.8882 12.6669C66.8889 12.6633 66.8901 12.6541 66.8897 12.6376C66.8888 12.6026 66.88 12.5398 66.846 12.4418C66.7755 12.2388 66.6253 11.9611 66.3683 11.5826C66.1783 11.3029 65.9424 10.986 65.6617 10.6248L65.3662 10.2486C64.9766 9.75743 64.9133 9.17807 64.9272 8.67106C64.9343 8.41476 64.9624 8.15084 64.9918 7.89867C65.0221 7.63839 65.0532 7.39182 65.0757 7.13421C65.1554 6.22026 65.1045 5.32197 64.3567 4.44423Z" fill="black" fill-opacity="0.6"/>
<path d="M70.5528 23.2825C71.2079 23.7914 71.6296 24.3254 71.7843 24.8858C71.9611 25.5262 71.76 26.0904 71.3911 26.4945C71.3389 26.5517 71.2827 26.6049 71.2247 26.6557C73.0981 27.9184 74.4253 29.519 75.1744 31.0947C75.8823 32.5838 76.1141 34.1577 75.6591 35.3875C77.1306 35.878 78.1637 36.0161 79.7607 36.1053C81.4269 33.3705 81.7345 31.3419 80.8651 29.6262L80.7737 29.4547C80.7314 29.379 80.6861 29.3036 80.6386 29.2282L80.4882 29.0021C80.0027 28.3103 79.2935 27.6304 78.3266 26.9531C75.0382 26.3755 73.2833 24.9969 70.5528 23.2825Z" fill="#BCC2D4"/>
<path d="M56.7487 23.7233C57.4296 24.1707 57.9838 24.8508 58.4083 25.621C59.1188 26.9103 59.5389 28.5679 59.6269 30.2321C59.6917 31.4595 59.5765 32.7219 59.2435 33.8714C59.2429 33.8739 59.2427 33.8764 59.242 33.8789C59.1241 34.2848 58.9794 34.6768 58.805 35.0479C58.2513 36.2261 57.3905 37.2153 56.1757 37.7487C57.108 39.0624 58.4516 40.5493 59.9968 42.1595L60.9666 43.1609C61.1146 43.3127 61.264 43.4648 61.414 43.618C62.2953 42.3502 63.2283 41.5364 64.2112 40.9766C65.3071 40.3525 66.4375 40.0631 67.5066 39.7894L67.6097 39.763C68.7257 39.4769 69.7955 39.1922 70.8826 38.5796C71.9602 37.9724 73.0836 37.0246 74.2429 35.38L74.2905 35.3086C74.7664 34.5531 74.7752 33.2138 74.0263 31.6385C73.2955 30.1011 71.8942 28.4771 69.8288 27.2788C66.4471 27.99 63.8821 27.1204 61.6464 26.036C61.1053 25.7735 60.5797 25.4968 60.0718 25.2294L59.9983 25.1907C59.4641 24.9095 58.9496 24.6397 58.4356 24.3965C57.8669 24.1274 57.3096 23.8961 56.7487 23.7233Z" fill="#BCC2D4"/>
<path d="M60.8037 1.34475C58.7744 1.05312 56.0126 1.57207 53.2658 3.51865C53.0926 3.64141 52.8693 3.66972 52.6709 3.594C51.6447 3.20225 50.9439 3.13806 50.4736 3.23607C50.0393 3.32662 49.739 3.56782 49.5142 3.97673C49.275 4.41198 49.1269 5.03366 49.0624 5.83185C48.9985 6.62214 49.0199 7.53308 49.0827 8.51341C49.2051 10.4219 49.4972 12.6833 49.5291 14.5195C49.5454 15.4537 49.4983 16.3457 49.3171 17.1029C49.2206 17.5061 49.0792 17.8941 48.8742 18.2362C49.024 18.2708 49.1559 18.2832 49.2754 18.2788C49.5635 18.2684 49.853 18.1653 50.2129 17.9442C50.5853 17.7154 50.9773 17.3975 51.4936 16.9884C51.8981 16.6679 52.3603 16.3078 52.9033 15.9389L52.8035 15.6394L52.7861 15.577C52.7156 15.2631 52.893 14.9407 53.2052 14.8368C53.5175 14.7329 53.8537 14.8844 53.9858 15.1779L54.0092 15.2384L54.2515 15.9651C54.4418 16.3872 54.6152 16.6773 54.8677 16.9532C54.8956 16.9837 54.9251 17.0141 54.9556 17.0449C54.8664 16.5757 54.7536 16.0768 54.618 15.5343C54.137 15.1199 53.6561 14.7225 53.2708 14.3435C52.8638 13.9434 52.499 13.5038 52.2826 12.9713C51.6745 12.2338 51.2809 11.5181 51.0804 10.6179C50.878 9.70928 50.8819 8.65248 50.993 7.26559C51.0211 6.91633 51.3274 6.65565 51.6773 6.68357C52.0271 6.71151 52.2881 7.01747 52.2603 7.36672C52.1511 8.72861 52.1622 9.62772 52.3213 10.3423C52.335 10.4034 52.35 10.4635 52.366 10.5227C52.6129 10.1205 52.957 9.80269 53.4257 9.69777C53.8875 9.59441 54.3354 9.72861 54.7227 9.93623C55.1961 10.19 55.6999 10.6204 56.2288 11.1632C56.2914 10.8899 56.3699 10.6455 56.4607 10.4236C56.6844 9.87682 56.9774 9.47805 57.1639 9.19161C57.3553 8.89765 57.4508 8.70415 57.4727 8.45144C57.496 8.18332 57.4405 7.76926 57.1415 7.05291C57.0847 6.91686 57.0772 6.76509 57.1202 6.62407C57.3916 5.73252 57.8286 5.06931 58.4043 4.58701C58.9737 4.11003 59.6404 3.84222 60.3216 3.6763C60.9971 3.51176 61.7223 3.43991 62.4186 3.37736C62.9128 3.33296 63.3938 3.29158 63.8641 3.23111C63.5655 2.37959 62.5448 1.59499 60.8037 1.34475Z" fill="#989796"/>
<path d="M40.2249 46.2322C41.3638 46.8836 42.3964 47.7537 43.1934 48.7635C44.8777 50.3277 46.2285 52.8233 47.2027 55.6669C48.1882 58.5435 48.8101 61.8396 48.9879 65.0358C49.1654 68.227 48.9024 71.3572 48.0886 73.8885C47.9193 74.415 47.7235 74.9203 47.5011 75.3981C48.97 73.353 49.7489 70.7311 49.978 68.6726L50.0158 68.3083C50.1802 66.6069 50.1721 64.8999 50.0138 63.2272L49.9775 62.8693C49.9331 62.4568 49.8794 62.0466 49.8171 61.6393L49.7521 61.2328C49.5846 60.236 49.5458 59.8804 49.3375 59.1214L49.2372 58.7679C48.7963 57.2658 48.0442 55.1867 47.3785 53.8103L47.2469 53.5446C45.9055 50.9193 44.1909 48.7832 42.2936 47.4016L42.1094 47.2703C41.4972 46.8429 40.8675 46.4943 40.2249 46.2322Z" fill="black" fill-opacity="0.4"/>
<path d="M11.3291 70.3304C11.416 70.4981 11.5056 70.6317 11.5923 70.73C11.6388 70.6356 11.6832 70.5142 11.7174 70.3592C11.7997 69.9863 11.804 69.5163 11.7204 69.0435C11.6462 68.6235 11.5087 68.236 11.3291 67.9359C10.8475 67.6062 10.899 69.5 11.3291 70.3304Z" fill="black" fill-opacity="0.4"/>
<path d="M98.5856 45.2233C98.0183 45.0662 97.1581 45.1191 95.5039 45.4999L84.5849 48.2484C84.5814 48.2493 84.578 48.2505 84.5745 48.2514L71.5867 51.5204C72.8247 53.143 73.1698 54.6909 72.8559 56.0239C73.6113 56.0648 74.1758 56.1564 74.7548 56.359C74.894 56.2268 75.0308 56.0964 75.165 55.9669C75.7125 55.438 76.2382 54.9189 76.7734 54.4543C77.8486 53.521 79.0027 52.7704 80.6635 52.4004C84.7355 50.6145 86.9477 49.8881 90.4364 47.649L90.6107 47.5415C91.5018 47.0152 92.6717 46.6501 93.896 46.5217C95.1079 46.3946 96.4184 46.495 97.6104 46.9386L99.5857 45.9258C99.2411 45.5269 98.9514 45.3246 98.5856 45.2233Z" fill="black" fill-opacity="0.4"/>
<path d="M80.2881 53.8158C79.2309 54.1579 78.4207 54.7064 77.6076 55.4121C77.1052 55.8482 76.6122 56.3344 76.0489 56.8786C75.4907 57.4177 74.8752 58.0015 74.153 58.6028C73.8834 58.8273 73.4825 58.7911 73.2577 58.522C73.0329 58.2528 73.069 57.8526 73.3386 57.6281C73.439 57.5445 73.5371 57.4608 73.6336 57.3778C73.2859 57.319 72.8785 57.2883 72.334 57.2737C72.0551 57.7235 71.6996 58.1173 71.2962 58.4506L71.0742 58.6246C70.7195 58.888 70.3318 59.1094 69.9267 59.2869C69.7456 61.4004 69.7733 62.7645 70.1735 64.9178C70.9519 64.8099 71.6942 64.999 72.3663 65.3124C73.228 65.7142 74.0393 66.3495 74.7469 66.9147C75.4895 67.5078 76.0978 68.0042 76.6408 68.2666C76.9023 68.393 77.0982 68.4387 77.2456 68.4357C77.3746 68.433 77.5027 68.3932 77.6493 68.2651C78.6553 67.3864 79.5225 66.3715 80.591 65.3208C81.4157 64.5098 82.321 63.724 83.3767 63.1544C81.2238 60.6142 80.6023 57.7359 80.2881 53.8158Z" fill="#F3F9B0"/>
<path d="M84.284 64.1176C83.2663 64.6016 82.369 65.3542 81.4833 66.2251C80.53 67.1625 79.5145 68.3224 78.4865 69.2204C78.1247 69.5365 77.7125 69.6951 77.2724 69.7043C76.8508 69.7131 76.4487 69.5838 76.0866 69.4088C75.3823 69.0684 74.6397 68.4547 73.9524 67.9057C73.2299 67.3287 72.5314 66.79 71.828 66.4621C71.3414 66.2352 70.8869 66.1257 70.4461 66.1641C71.2196 68.8803 73.406 71.2288 76.1278 72.3065C79.0131 73.449 82.4907 73.1605 85.5135 70.3186L85.7076 70.1316C86.5605 69.2931 87.3796 68.2411 88.1378 66.9459C86.5617 66.015 85.2978 65.0914 84.284 64.1176Z" fill="#E5B3A5"/>
<path d="M89.5476 67.0361C88.7885 68.427 87.953 69.5937 87.0638 70.556C87.7907 70.8133 88.4123 70.9025 89.0475 70.849C89.8128 70.7846 90.6491 70.5094 91.7583 69.9775L91.7404 69.9393C91.7185 69.8924 91.6959 69.8459 91.6744 69.799C91.6402 69.7244 91.6077 69.6493 91.5746 69.5744C91.5492 69.517 91.5233 69.4599 91.4986 69.4024C91.4727 69.342 91.4479 69.2811 91.4226 69.2204C91.3948 69.1535 91.3667 69.0868 91.3397 69.0197C91.3121 68.951 91.2859 68.8819 91.2593 68.8129C91.2377 68.7571 91.2157 68.7014 91.1947 68.6454C91.1711 68.5823 91.1485 68.5189 91.1259 68.4555L91.1152 68.4257C91.0943 68.3671 91.073 68.3086 91.0527 68.2497C91.0274 68.1762 91.0035 68.1022 90.9792 68.0281C90.9613 67.9735 90.9429 67.919 90.9256 67.8641C90.9028 67.792 90.8812 67.7195 90.8595 67.6469C90.8392 67.579 90.8189 67.511 90.7994 67.4427C90.7794 67.3724 90.7604 67.3018 90.7413 67.231L90.7365 67.2132C90.722 67.1592 90.7075 67.1052 90.6937 67.051C90.6758 66.9812 90.6589 66.9111 90.642 66.8408C90.6241 66.7662 90.6062 66.6914 90.5894 66.6162C90.5742 66.5486 90.56 66.4806 90.5457 66.4125C90.5319 66.3467 90.5184 66.2808 90.5055 66.2147C90.4908 66.1393 90.4769 66.0636 90.4633 65.9876C90.4523 65.9265 90.4412 65.8652 90.431 65.8037C90.4253 65.7698 90.419 65.736 90.4136 65.702L89.5476 67.0361Z" fill="#E5B3A5"/>
<path d="M38.7372 60.3246C38.6216 60.2182 38.2837 60.1422 37.8195 60.2973C37.7376 60.3247 37.6625 60.3579 37.5946 60.392C38.2107 60.7484 38.67 61.1723 38.9761 61.6497C39.397 62.3064 39.498 63.0179 39.3679 63.6799C39.1731 64.6698 38.4677 65.5351 37.5842 66.0074C37.6233 66.0366 37.6842 66.0668 37.822 66.0754L37.9005 66.0778L37.9551 66.0803C38.8754 66.1637 39.7463 65.3503 40.0496 63.9748C40.3338 62.6861 40.0076 61.2634 38.9214 60.4609L38.8142 60.3855C38.7871 60.3673 38.7612 60.3467 38.7372 60.3246Z" fill="black" fill-opacity="0.4"/>
<path d="M119.649 40.293C119.21 40.3349 118.788 40.5222 118.484 40.7917C118.452 40.8198 118.422 40.8488 118.394 40.878C118.701 40.8907 118.985 40.9596 119.241 41.0807C119.71 41.3022 120.034 41.6745 120.217 42.0817C120.397 42.4832 120.448 42.9387 120.351 43.3558C120.259 43.7515 120.023 44.1411 119.61 44.3681L119.525 44.4112L119.504 44.4212L119.022 44.6249C119.19 44.7545 119.36 44.8305 119.522 44.8693C119.858 44.9495 120.234 44.8886 120.594 44.6844C121.3 44.2839 121.85 43.3824 121.698 42.3087L121.681 42.2041C121.53 41.3723 121.201 40.8901 120.856 40.6222C120.508 40.3523 120.082 40.2516 119.649 40.293Z" fill="black" fill-opacity="0.4"/>
<path d="M127.002 31.3713C128.714 33.0318 130.121 35.2874 131.021 37.8018C132.499 41.9289 132.639 46.8468 130.418 51.0564C130.734 50.5894 131.008 50.0924 131.24 49.5711C132.365 47.0521 132.569 43.9584 132.276 41.1283L132.211 40.5661C132.17 40.2428 132.118 40.0039 132.058 39.764C132 39.5324 131.926 39.2654 131.858 38.9396C131.826 38.8184 131.794 38.6982 131.76 38.5791L131.653 38.2153C130.699 35.1022 128.987 32.7442 126.892 31.2687C126.928 31.303 126.966 31.3365 127.002 31.3713Z" fill="black" fill-opacity="0.4"/>
<path d="M3.24646 43.7177C3.1409 43.7669 2.9457 43.9498 2.75536 44.4301C2.5671 44.9051 2.44183 45.5278 2.39733 46.1642C2.35273 46.8024 2.39273 47.4059 2.5026 47.8414C2.5579 48.0605 2.62302 48.204 2.67789 48.2846C2.69365 48.3077 2.70575 48.3212 2.71315 48.3287L2.73003 48.3332L10.8335 50.6082L16.632 51.6151C20.3016 52.0973 23.7269 50.9285 29.6763 49.1641C30.2005 48.3587 30.83 47.561 31.5802 46.7398L31.7743 46.5375C32.229 46.0878 32.7393 45.7408 33.2874 45.4885C36.3166 43.8476 39.3772 44.1518 42.0677 45.7359C42.6623 43.4727 43.4793 41.6318 44.2859 39.9291C45.0418 38.3333 45.7715 36.8866 46.3317 35.3057L3.24646 43.7177Z" fill="black" fill-opacity="0.4"/>
<path d="M83.3792 28.8479C82.8318 28.8335 82.3727 28.8555 82.0201 28.9138L81.9918 28.9188L82.1934 29.1279C84.9397 31.9763 86.669 33.7699 88.0931 35.6785C88.4114 35.7449 88.7185 35.8258 89.0163 35.9194L95.1747 34.2933C95.7334 34.1258 96.0411 33.9031 96.1902 33.7083C96.3227 33.5352 96.3629 33.345 96.2994 33.1065C96.1615 32.5883 95.5135 31.8326 94.1096 31.1304L93.8191 30.9911C92.8813 30.559 90.054 29.7876 87.2341 29.2931C85.8344 29.0477 84.4718 28.8768 83.3792 28.8479Z" fill="black" fill-opacity="0.4"/>
<path d="M54.9358 38.19C54.3531 40.1232 53.7766 41.8296 53.0429 43.685L58.3422 42.2616C56.9922 40.8259 55.7896 39.4487 54.9358 38.19Z" fill="black" fill-opacity="0.4"/>
</svg>
